<svg xmlns="http://www.w3.org/2000/svg" version="1.1" xmlns:xlink="http://www.w3.org/1999/xlink" xmlns:svgjs="http://svgjs.dev/svgjs" viewBox="0 0 800 800"><defs><linearGradient x1="50%" y1="0%" x2="50%" y2="100%" id="ffflurry-grad" gradientTransform="rotate(270)"><stop stop-color="hsl(0, 0%, 0%)" stop-opacity="1" offset="0%"></stop><stop stop-color="hsl(212, 72%, 59%)" stop-opacity="1" offset="45%"></stop><stop stop-color="hsl(196, 85%, 43%)" stop-opacity="1" offset="100%"></stop></linearGradient></defs><rect width="100%" height="100%" fill="hsl(0, 0%, 0%)"></rect><g fill="url(#ffflurry-grad)"><rect width="143" height="3" x="388.5" y="740.5" rx="1.5" transform="rotate(128, 460, 742)" opacity="0.45"></rect><rect width="432" height="3" x="-176" y="632.5" rx="1.5" transform="rotate(128, 40, 634)" opacity="0.14"></rect><rect width="475" height="3" x="197.5" y="609.5" rx="1.5" transform="rotate(128, 435, 611)" opacity="0.78"></rect><rect width="185" height="3" x="155.5" y="559.5" rx="1.5" transform="rotate(128, 248, 561)" opacity="0.86"></rect><rect width="313" height="3" x="102.5" y="210.5" rx="1.5" transform="rotate(128, 259, 212)" opacity="0.23"></rect><rect width="336" height="3" x="-43" y="749.5" rx="1.5" transform="rotate(128, 125, 751)" opacity="0.28"></rect><rect width="564" height="3" x="14" y="50.5" rx="1.5" transform="rotate(128, 296, 52)" opacity="0.74"></rect><rect width="171" height="3" x="153.5" y="641.5" rx="1.5" transform="rotate(128, 239, 643)" opacity="0.78"></rect><rect width="52" height="3" x="492" y="84.5" rx="1.5" transform="rotate(128, 518, 86)" opacity="0.61"></rect><rect width="317" height="3" x="154.5" y="674.5" rx="1.5" transform="rotate(128, 313, 676)" opacity="0.46"></rect><rect width="65" height="3" x="726.5" y="575.5" rx="1.5" transform="rotate(128, 759, 577)" opacity="0.87"></rect><rect width="470" height="3" x="392" y="666.5" rx="1.5" transform="rotate(128, 627, 668)" opacity="0.12"></rect><rect width="299" height="3" x="608.5" y="413.5" rx="1.5" transform="rotate(128, 758, 415)" opacity="0.12"></rect><rect width="576" height="3" x="257" y="163.5" rx="1.5" transform="rotate(128, 545, 165)" opacity="0.47"></rect><rect width="364" height="3" x="343" y="243.5" rx="1.5" transform="rotate(128, 525, 245)" opacity="0.47"></rect><rect width="456" height="3" x="-134" y="51.5" rx="1.5" transform="rotate(128, 94, 53)" opacity="0.62"></rect><rect width="190" height="3" x="181" y="745.5" rx="1.5" transform="rotate(128, 276, 747)" opacity="0.82"></rect><rect width="246" height="3" x="-97" y="777.5" rx="1.5" transform="rotate(128, 26, 779)" opacity="0.64"></rect><rect width="215" height="3" x="670.5" y="476.5" rx="1.5" transform="rotate(128, 778, 478)" opacity="0.26"></rect><rect width="330" height="3" x="59" y="138.5" rx="1.5" transform="rotate(128, 224, 140)" opacity="0.68"></rect><rect width="516" height="3" x="-221" y="229.5" rx="1.5" transform="rotate(128, 37, 231)" opacity="0.62"></rect><rect width="385" height="3" x="467.5" y="69.5" rx="1.5" transform="rotate(128, 660, 71)" opacity="0.79"></rect><rect width="66" height="3" x="595" y="184.5" rx="1.5" transform="rotate(128, 628, 186)" opacity="0.99"></rect><rect width="187" height="3" x="517.5" y="745.5" rx="1.5" transform="rotate(128, 611, 747)" opacity="0.59"></rect><rect width="602" height="3" x="35" y="596.5" rx="1.5" transform="rotate(128, 336, 598)" opacity="0.28"></rect><rect width="134" height="3" x="298" y="501.5" rx="1.5" transform="rotate(128, 365, 503)" opacity="0.89"></rect><rect width="724" height="3" x="-218" y="461.5" rx="1.5" transform="rotate(128, 144, 463)" opacity="0.82"></rect><rect width="308" height="3" x="283" y="33.5" rx="1.5" transform="rotate(128, 437, 35)" opacity="0.18"></rect><rect width="116" height="3" x="-23" y="720.5" rx="1.5" transform="rotate(128, 35, 722)" opacity="0.82"></rect><rect width="306" height="3" x="429" y="32.5" rx="1.5" transform="rotate(128, 582, 34)" opacity="0.82"></rect><rect width="264" height="3" x="553" y="734.5" rx="1.5" transform="rotate(128, 685, 736)" opacity="0.35"></rect><rect width="74" height="3" x="147" y="682.5" rx="1.5" transform="rotate(128, 184, 684)" opacity="0.57"></rect><rect width="609" height="3" x="229.5" y="466.5" rx="1.5" transform="rotate(128, 534, 468)" opacity="0.39"></rect><rect width="350" height="3" x="132" y="258.5" rx="1.5" transform="rotate(128, 307, 260)" opacity="0.56"></rect><rect width="534" height="3" x="-70" y="44.5" rx="1.5" transform="rotate(128, 197, 46)" opacity="0.34"></rect><rect width="455" height="3" x="461.5" y="616.5" rx="1.5" transform="rotate(128, 689, 618)" opacity="0.22"></rect><rect width="509" height="3" x="411.5" y="449.5" rx="1.5" transform="rotate(128, 666, 451)" opacity="0.61"></rect><rect width="516" height="3" x="137" y="383.5" rx="1.5" transform="rotate(128, 395, 385)" opacity="0.69"></rect><rect width="165" height="3" x="647.5" y="507.5" rx="1.5" transform="rotate(128, 730, 509)" opacity="0.40"></rect><rect width="510" height="3" x="290" y="319.5" rx="1.5" transform="rotate(128, 545, 321)" opacity="0.62"></rect><rect width="456" height="3" x="146" y="740.5" rx="1.5" transform="rotate(128, 374, 742)" opacity="0.88"></rect><rect width="195" height="3" x="658.5" y="758.5" rx="1.5" transform="rotate(128, 756, 760)" opacity="0.14"></rect><rect width="178" height="3" x="-7" y="774.5" rx="1.5" transform="rotate(128, 82, 776)" opacity="0.21"></rect><rect width="201" height="3" x="660.5" y="667.5" rx="1.5" transform="rotate(128, 761, 669)" opacity="0.74"></rect><rect width="298" height="3" x="536" y="368.5" rx="1.5" transform="rotate(128, 685, 370)" opacity="0.53"></rect><rect width="41" height="3" x="95.5" y="682.5" rx="1.5" transform="rotate(128, 116, 684)" opacity="0.26"></rect><rect width="459" height="3" x="105.5" y="169.5" rx="1.5" transform="rotate(128, 335, 171)" opacity="0.52"></rect><rect width="467" height="3" x="408.5" y="284.5" rx="1.5" transform="rotate(128, 642, 286)" opacity="0.09"></rect><rect width="267" height="3" x="322.5" y="437.5" rx="1.5" transform="rotate(128, 456, 439)" opacity="0.75"></rect><rect width="74" height="3" x="723" y="337.5" rx="1.5" transform="rotate(128, 760, 339)" opacity="0.54"></rect><rect width="88" height="3" x="725" y="164.5" rx="1.5" transform="rotate(128, 769, 166)" opacity="0.91"></rect><rect width="568" height="3" x="243" y="551.5" rx="1.5" transform="rotate(128, 527, 553)" opacity="0.27"></rect><rect width="205" height="3" x="642.5" y="262.5" rx="1.5" transform="rotate(128, 745, 264)" opacity="0.54"></rect><rect width="671" height="3" x="-272.5" y="353.5" rx="1.5" transform="rotate(128, 63, 355)" opacity="0.71"></rect><rect width="524" height="3" x="-67" y="374.5" rx="1.5" transform="rotate(128, 195, 376)" opacity="0.19"></rect><rect width="329" height="3" x="263.5" y="151.5" rx="1.5" transform="rotate(128, 428, 153)" opacity="0.95"></rect><rect width="408" height="3" x="250" y="316.5" rx="1.5" transform="rotate(128, 454, 318)" opacity="0.53"></rect><rect width="305" height="3" x="223.5" y="85.5" rx="1.5" transform="rotate(128, 376, 87)" opacity="0.34"></rect><rect width="281" height="3" x="122.5" y="315.5" rx="1.5" transform="rotate(128, 263, 317)" opacity="0.10"></rect><rect width="625" height="3" x="213.5" y="662.5" rx="1.5" transform="rotate(128, 526, 664)" opacity="0.23"></rect><rect width="198" height="3" x="-55" y="113.5" rx="1.5" transform="rotate(128, 44, 115)" opacity="0.17"></rect><rect width="596" height="3" x="-119" y="267.5" rx="1.5" transform="rotate(128, 179, 269)" opacity="0.72"></rect><rect width="102" height="3" x="489" y="760.5" rx="1.5" transform="rotate(128, 540, 762)" opacity="0.29"></rect><rect width="331" height="3" x="278.5" y="219.5" rx="1.5" transform="rotate(128, 444, 221)" opacity="0.95"></rect><rect width="347" height="3" x="465.5" y="525.5" rx="1.5" transform="rotate(128, 639, 527)" opacity="0.82"></rect><rect width="643" height="3" x="267.5" y="390.5" rx="1.5" transform="rotate(128, 589, 392)" opacity="0.51"></rect><rect width="512" height="3" x="496" y="54.5" rx="1.5" transform="rotate(128, 752, 56)" opacity="0.80"></rect><rect width="261" height="3" x="187.5" y="381.5" rx="1.5" transform="rotate(128, 318, 383)" opacity="0.46"></rect><rect width="45" height="3" x="99.5" y="199.5" rx="1.5" transform="rotate(128, 122, 201)" opacity="0.21"></rect><rect width="657" height="3" x="-280.5" y="501.5" rx="1.5" transform="rotate(128, 48, 503)" opacity="0.76"></rect><rect width="384" height="3" x="65" y="471.5" rx="1.5" transform="rotate(128, 257, 473)" opacity="0.65"></rect><rect width="519" height="3" x="113.5" y="275.5" rx="1.5" transform="rotate(128, 373, 277)" opacity="0.24"></rect><rect width="39" height="3" x="683.5" y="175.5" rx="1.5" transform="rotate(128, 703, 177)" opacity="0.97"></rect><rect width="152" height="3" x="38" y="589.5" rx="1.5" transform="rotate(128, 114, 591)" opacity="0.97"></rect><rect width="422" height="3" x="389" y="601.5" rx="1.5" transform="rotate(128, 600, 603)" opacity="0.99"></rect><rect width="214" height="3" x="71" y="575.5" rx="1.5" transform="rotate(128, 178, 577)" opacity="0.88"></rect><rect width="77" height="3" x="165.5" y="765.5" rx="1.5" transform="rotate(128, 204, 767)" opacity="0.61"></rect></g></svg>