<svg xmlns="http://www.w3.org/2000/svg" version="1.1" xmlns:xlink="http://www.w3.org/1999/xlink" xmlns:svgjs="http://svgjs.dev/svgjs" viewBox="0 0 800 800"><g fill="none" stroke-width="3" stroke="hsl(230, 55%, 40%)" stroke-linecap="round"><line x1="673.5" y1="400" x2="126.5" y2="400" transform="rotate(0, 400, 400)" opacity="0.54"></line><line x1="588.5" y1="400" x2="211.5" y2="400" transform="rotate(4, 400, 400)" opacity="0.98"></line><line x1="722.5" y1="400" x2="77.5" y2="400" transform="rotate(8, 400, 400)" opacity="0.39"></line><line x1="116.5" y1="400" x2="683.5" y2="400" transform="rotate(12, 400, 400)" opacity="0.76"></line><line x1="68.5" y1="400" x2="731.5" y2="400" transform="rotate(16, 400, 400)" opacity="0.47"></line><line x1="571.5" y1="400" x2="228.5" y2="400" transform="rotate(20, 400, 400)" opacity="0.77"></line><line x1="154.5" y1="400" x2="645.5" y2="400" transform="rotate(24, 400, 400)" opacity="0.93"></line><line x1="503" y1="400" x2="297" y2="400" transform="rotate(28, 400, 400)" opacity="0.16"></line><line x1="573.5" y1="400" x2="226.5" y2="400" transform="rotate(32, 400, 400)" opacity="0.70"></line><line x1="236" y1="400" x2="564" y2="400" transform="rotate(36, 400, 400)" opacity="0.42"></line><line x1="140.5" y1="400" x2="659.5" y2="400" transform="rotate(40, 400, 400)" opacity="0.33"></line><line x1="479" y1="400" x2="321" y2="400" transform="rotate(44, 400, 400)" opacity="0.82"></line><line x1="674.5" y1="400" x2="125.5" y2="400" transform="rotate(48, 400, 400)" opacity="0.21"></line><line x1="25.5" y1="400" x2="774.5" y2="400" transform="rotate(52, 400, 400)" opacity="0.63"></line><line x1="396.5" y1="400" x2="403.5" y2="400" transform="rotate(56, 400, 400)" opacity="0.19"></line><line x1="496" y1="400" x2="304" y2="400" transform="rotate(60, 400, 400)" opacity="0.47"></line><line x1="297.5" y1="400" x2="502.5" y2="400" transform="rotate(64, 400, 400)" opacity="0.12"></line><line x1="504" y1="400" x2="296" y2="400" transform="rotate(68, 400, 400)" opacity="0.36"></line><line x1="274.5" y1="400" x2="525.5" y2="400" transform="rotate(72, 400, 400)" opacity="0.47"></line><line x1="375" y1="400" x2="425" y2="400" transform="rotate(76, 400, 400)" opacity="0.52"></line><line x1="404.5" y1="400" x2="395.5" y2="400" transform="rotate(80, 400, 400)" opacity="0.13"></line><line x1="212" y1="400" x2="588" y2="400" transform="rotate(84, 400, 400)" opacity="0.36"></line><line x1="459.5" y1="400" x2="340.5" y2="400" transform="rotate(88, 400, 400)" opacity="0.20"></line><line x1="234.5" y1="400" x2="565.5" y2="400" transform="rotate(92, 400, 400)" opacity="0.61"></line><line x1="523.5" y1="400" x2="276.5" y2="400" transform="rotate(96, 400, 400)" opacity="0.28"></line><line x1="666.5" y1="400" x2="133.5" y2="400" transform="rotate(100, 400, 400)" opacity="0.97"></line><line x1="280" y1="400" x2="520" y2="400" transform="rotate(104, 400, 400)" opacity="0.58"></line><line x1="429" y1="400" x2="371" y2="400" transform="rotate(108, 400, 400)" opacity="0.94"></line><line x1="192" y1="400" x2="608" y2="400" transform="rotate(112, 400, 400)" opacity="0.58"></line><line x1="467" y1="400" x2="333" y2="400" transform="rotate(116, 400, 400)" opacity="0.27"></line><line x1="161" y1="400" x2="639" y2="400" transform="rotate(120, 400, 400)" opacity="0.71"></line><line x1="303" y1="400" x2="497" y2="400" transform="rotate(124, 400, 400)" opacity="0.39"></line><line x1="720" y1="400" x2="80" y2="400" transform="rotate(128, 400, 400)" opacity="0.54"></line><line x1="171" y1="400" x2="629" y2="400" transform="rotate(132, 400, 400)" opacity="0.42"></line><line x1="562" y1="400" x2="238" y2="400" transform="rotate(136, 400, 400)" opacity="0.33"></line><line x1="623.5" y1="400" x2="176.5" y2="400" transform="rotate(140, 400, 400)" opacity="0.71"></line><line x1="728.5" y1="400" x2="71.5" y2="400" transform="rotate(144, 400, 400)" opacity="0.41"></line><line x1="737" y1="400" x2="63" y2="400" transform="rotate(148, 400, 400)" opacity="0.73"></line><line x1="576.5" y1="400" x2="223.5" y2="400" transform="rotate(152, 400, 400)" opacity="0.59"></line><line x1="599" y1="400" x2="201" y2="400" transform="rotate(156, 400, 400)" opacity="1.00"></line><line x1="138" y1="400" x2="662" y2="400" transform="rotate(160, 400, 400)" opacity="0.26"></line><line x1="99.5" y1="400" x2="700.5" y2="400" transform="rotate(164, 400, 400)" opacity="0.98"></line><line x1="397.5" y1="400" x2="402.5" y2="400" transform="rotate(168, 400, 400)" opacity="0.42"></line><line x1="35" y1="400" x2="765" y2="400" transform="rotate(172, 400, 400)" opacity="0.35"></line><line x1="541.5" y1="400" x2="258.5" y2="400" transform="rotate(176, 400, 400)" opacity="0.68"></line><line x1="581.5" y1="400" x2="218.5" y2="400" transform="rotate(180, 400, 400)" opacity="0.59"></line><line x1="722.5" y1="400" x2="77.5" y2="400" transform="rotate(184, 400, 400)" opacity="0.33"></line><line x1="408.5" y1="400" x2="391.5" y2="400" transform="rotate(188, 400, 400)" opacity="0.68"></line><line x1="658" y1="400" x2="142" y2="400" transform="rotate(192, 400, 400)" opacity="0.51"></line><line x1="732.5" y1="400" x2="67.5" y2="400" transform="rotate(196, 400, 400)" opacity="0.21"></line><line x1="564.5" y1="400" x2="235.5" y2="400" transform="rotate(200, 400, 400)" opacity="0.57"></line><line x1="313" y1="400" x2="487" y2="400" transform="rotate(204, 400, 400)" opacity="0.43"></line><line x1="64" y1="400" x2="736" y2="400" transform="rotate(208, 400, 400)" opacity="0.17"></line><line x1="558" y1="400" x2="242" y2="400" transform="rotate(212, 400, 400)" opacity="0.81"></line><line x1="248.5" y1="400" x2="551.5" y2="400" transform="rotate(216, 400, 400)" opacity="0.11"></line><line x1="431" y1="400" x2="369" y2="400" transform="rotate(220, 400, 400)" opacity="0.14"></line><line x1="174" y1="400" x2="626" y2="400" transform="rotate(224, 400, 400)" opacity="0.74"></line><line x1="592" y1="400" x2="208" y2="400" transform="rotate(228, 400, 400)" opacity="0.39"></line><line x1="453" y1="400" x2="347" y2="400" transform="rotate(232, 400, 400)" opacity="0.92"></line><line x1="88" y1="400" x2="712" y2="400" transform="rotate(236, 400, 400)" opacity="0.37"></line><line x1="213" y1="400" x2="587" y2="400" transform="rotate(240, 400, 400)" opacity="0.34"></line><line x1="183" y1="400" x2="617" y2="400" transform="rotate(244, 400, 400)" opacity="0.33"></line><line x1="262.5" y1="400" x2="537.5" y2="400" transform="rotate(248, 400, 400)" opacity="0.07"></line><line x1="595" y1="400" x2="205" y2="400" transform="rotate(252, 400, 400)" opacity="0.20"></line><line x1="41.5" y1="400" x2="758.5" y2="400" transform="rotate(256, 400, 400)" opacity="0.38"></line><line x1="256.5" y1="400" x2="543.5" y2="400" transform="rotate(260, 400, 400)" opacity="0.11"></line><line x1="83.5" y1="400" x2="716.5" y2="400" transform="rotate(264, 400, 400)" opacity="0.81"></line><line x1="148" y1="400" x2="652" y2="400" transform="rotate(268, 400, 400)" opacity="0.23"></line><line x1="467.5" y1="400" x2="332.5" y2="400" transform="rotate(272, 400, 400)" opacity="0.72"></line><line x1="190" y1="400" x2="610" y2="400" transform="rotate(276, 400, 400)" opacity="0.65"></line><line x1="726.5" y1="400" x2="73.5" y2="400" transform="rotate(280, 400, 400)" opacity="0.28"></line><line x1="345" y1="400" x2="455" y2="400" transform="rotate(284, 400, 400)" opacity="0.90"></line><line x1="429.5" y1="400" x2="370.5" y2="400" transform="rotate(288, 400, 400)" opacity="0.12"></line><line x1="104" y1="400" x2="696" y2="400" transform="rotate(292, 400, 400)" opacity="0.43"></line><line x1="483.5" y1="400" x2="316.5" y2="400" transform="rotate(296, 400, 400)" opacity="0.96"></line><line x1="424" y1="400" x2="376" y2="400" transform="rotate(300, 400, 400)" opacity="0.47"></line><line x1="275" y1="400" x2="525" y2="400" transform="rotate(304, 400, 400)" opacity="0.79"></line><line x1="369.5" y1="400" x2="430.5" y2="400" transform="rotate(308, 400, 400)" opacity="0.60"></line><line x1="251.5" y1="400" x2="548.5" y2="400" transform="rotate(312, 400, 400)" opacity="0.47"></line><line x1="301" y1="400" x2="499" y2="400" transform="rotate(316, 400, 400)" opacity="0.24"></line><line x1="220" y1="400" x2="580" y2="400" transform="rotate(320, 400, 400)" opacity="0.16"></line><line x1="175.5" y1="400" x2="624.5" y2="400" transform="rotate(324, 400, 400)" opacity="0.45"></line><line x1="663" y1="400" x2="137" y2="400" transform="rotate(328, 400, 400)" opacity="0.80"></line><line x1="385.5" y1="400" x2="414.5" y2="400" transform="rotate(332, 400, 400)" opacity="0.93"></line><line x1="484" y1="400" x2="316" y2="400" transform="rotate(336, 400, 400)" opacity="0.59"></line><line x1="190.5" y1="400" x2="609.5" y2="400" transform="rotate(340, 400, 400)" opacity="0.32"></line><line x1="387.5" y1="400" x2="412.5" y2="400" transform="rotate(344, 400, 400)" opacity="0.32"></line><line x1="216.5" y1="400" x2="583.5" y2="400" transform="rotate(348, 400, 400)" opacity="0.90"></line></g></svg>