<svg xmlns="http://www.w3.org/2000/svg" version="1.1" xmlns:xlink="http://www.w3.org/1999/xlink" xmlns:svgjs="http://svgjs.dev/svgjs" viewBox="0 0 800 800"><defs><linearGradient x1="50%" y1="0%" x2="50%" y2="100%" id="wwwhirl-grad"><stop stop-color="hsla(212, 88%, 51%, 1.00)" stop-opacity="1" offset="45%"></stop><stop stop-color="hsla(232, 16%, 68%, 1.00)" stop-opacity="1" offset="100%"></stop></linearGradient></defs><g stroke-width="2" stroke="url(#wwwhirl-grad)" fill="none" stroke-linecap="round"><path d="M37.00000251770027 405.4577486012082C50.75000289917 395.7639983322721 75.50000358581553 353.7714971672635 103.000004348755 358.92774731031466C130.50000511169446 364.0839974533658 141.5000054168703 433.9202493908506 169.00000617980973 430.20774928785374C196.5000069427492 426.4952491848569 207.50000724792503 336.3639966843228 235.00000801086446 341.1077468159299C262.500008773804 345.85149694753693 273.5000090789798 447.8214997765165 301.0000098419193 452.9777499195676C328.50001060485874 458.1340000626188 339.5000109100345 364.6202474682431 367.000011672974 365.85774750257536C394.50001243591345 367.09524753690766 405.5000127410893 463.4552502102476 433.0000135040287 458.9177500843626C460.5000142669682 454.3802499584775 471.50001457214404 353.15274715009735 499.0000153350834 344.07774689832735C526.5000160980228 335.0027466465573 537.5000164031987 414.94524886442235 565.0000171661382 415.35774887586643C592.5000179290777 415.7702488873105 603.5000182342535 338.8389967529874 631.000018997193 346.05774695325897C658.5000197601325 353.27649715353056 669.5000200653083 442.9952496426206 697.0000208282477 450.0077498371702C724.5000215911871 457.02025003171974 749.2500222778326 394.36149829336216 763.0000226593024 379.7177478870969 " transform="rotate(99, 400, 400)"></path><path d="M48.00000244140632 405.29234991109263C61.33333614464971 395.892349650306 85.3333368104878 355.17234852060074 112.00000421697456 360.172348659317C138.6666716234613 365.1723487980333 149.33333858605602 432.89235067680636 176.00000599254278 429.2923505769307C202.66667339902952 425.69235047705496 213.33334036162427 338.29234805229464 240.000007768111 342.8923481799136C266.6666751745978 347.49234830753255 277.3333421371925 446.3723510507855 304.00000954367925 451.3723511895017C330.66667695016605 456.372351328218 341.3333439127607 365.6923488124598 368.00001131924745 366.89234884575166C394.66667872573424 368.0923488790436 405.33334568832896 461.53235147137315 432.00001309481576 457.1323513493029C458.66668050130244 452.7323512272325 469.3333474638972 354.5723485039548 496.0000148703839 345.7723482598142C522.6666822768707 336.9723480156735 533.3333492394653 414.49235016633054 560.0000166459522 414.89235017742783C586.666684052439 415.2923501885251 597.3333510150337 340.69234811887844 624.0000184215204 347.6923483130812C650.6666858280073 354.69234850728395 661.3333527906019 441.692350920947 688.0000201970887 448.49235110960115C714.6666876035754 455.29235129825526 738.6666882694134 394.5323496125752 752.0000219726569 380.332349218621 " transform="rotate(96, 400, 400)"></path><path d="M59.00000236511238 405.12696647976605C71.9166693901294 396.020716227129 95.16667003516005 356.57321513272706 121.00000408519412 361.4169652671084C146.83333813522813 366.2607154014898 157.1666717552418 431.8644672215513 183.0000058052758 428.3769671247967C208.83333985530987 424.8894670280421 219.1666734753235 340.2207146790555 245.00000752535757 344.67696480268637C270.8333415753916 349.13321492631724 281.1666751954052 444.9232175838435 307.0000092454393 449.76696771822486C332.83334329547336 454.6107178526063 343.16667691548696 366.76446541546545 369.00001096552097 367.926965447717C394.83334501555504 369.08946547996857 405.1666786355687 459.60946799128783 431.0000126856027 455.3469678730322C456.8333467356368 451.0844677547766 467.16668035565044 355.99196511660125 493.0000144056845 347.46696488009C518.8333484557185 338.9419646435788 529.1666820757321 414.0394667270278 555.0000161257661 414.4269667377783C580.8333501758003 414.81446674852884 591.1666837958139 342.54571474355856 617.000017845848 349.3269649316925C642.8333518958821 356.1082151198264 653.1666855158957 440.38946745806254 679.0000195659296 446.9769676408212C704.8333536159636 453.5644678235799 728.0833542609943 394.70321619057734 741.0000212860114 380.9469658089342 " transform="rotate(93, 400, 400)"></path><path d="M70.00000228881842 404.9615792337422C82.50000263560909 396.1490789892548 105.00000325983231 357.9740779301561 130.00000395341365 362.6615780602026C155.00000464699497 367.3490781902491 165.00000492442751 430.8365799515989 190.00000561800886 427.46157985796543C215.0000063115902 424.08657976433193 225.00000658902275 342.1490774911191 250.00000728260406 346.4615776107619C275.00000797618543 350.77407773040466 285.000008253618 443.47408030220424 310.0000089471993 448.16158043225073C335.00000964078066 452.8490805622973 345.00000991821315 367.8365782037739 370.0000106117945 368.9615782349851C395.00001130537584 370.0865782661962 405.0000115828084 457.68658069650525 430.0000122763897 453.5615805820643C455.000012969971 449.4365804676234 465.0000132474036 357.4115779145505 490.00001394098496 349.16157768566865C515.0000146345662 340.9115774567868 525.0000149119987 413.58657947302777 550.0000156055801 413.9615794834315C575.0000162991615 414.3365794938352 585.000016576594 344.3990775535414 610.0000172701755 350.9615777356065C635.0000179637568 357.5240779176716 645.0000182411893 439.0865801804807 670.0000189347705 445.46158035734396C695.0000196283519 451.8365805342072 717.5000202525752 394.87407895388213 730.0000205993658 381.5615785845501 " transform="rotate(90, 400, 400)"></path><path d="M81.00000221252448 404.79619580241564C93.08333588108879 396.2774455660778 114.83333648450457 359.3749445422824 139.0000038216332 363.906194667994C163.1666711587618 368.43744479370565 172.83333809361326 429.80869649634377 197.0000054307419 426.5461964058314C221.16667276787052 423.28369631531905 230.833339702722 344.07744411787996 255.00000703985063 348.24619423353465C279.16667437697924 352.41494434918934 288.83334131183074 442.0249468352623 313.00000864895935 446.5561969609739C337.16667598608797 451.08744708668553 346.8333429209394 368.90869480677964 371.000010258068 369.9961948369504C395.16667759519663 371.0836948671212 404.8333445300481 455.7636972164199 429.00001186717674 451.7761971057937C453.16667920430535 447.78869699516747 462.8333461391569 358.831194527197 487.00001347628546 350.85619430594454C511.1666808134141 342.8811940846921 520.8333477482655 413.133696033725 545.0000150853941 413.49619604378194C569.1666824225229 413.8586960538389 578.8333493573742 346.25244417822154 603.000016694503 352.5961943542178C627.1666840316316 358.93994453021406 636.8333509664831 437.78369671759623 661.0000183036116 443.94619688856403C685.1666856407402 450.1086970595318 706.9166862441559 395.04494553188425 719.0000199127203 382.17619517486327 " transform="rotate(87, 400, 400)"></path><path d="M92.00000213623053 404.6307971123C103.6666691265685 396.40579688411174 124.66666970917683 360.77579589561964 148.00000368985275 365.15079601699637C171.33333767052864 369.5257961383731 180.666671262799 428.7807977822996 204.00000524347493 425.6307976949083C227.33333922415085 422.4807976075171 236.66667281642125 346.00579548585176 260.00000679709717 350.03079559751836C283.33334077777306 354.05579570918496 292.66667437004344 440.57579810953126 316.0000083507193 444.950798230908C339.3333423313953 449.3257983522847 348.66667592366565 369.9807961509963 372.00000990434154 371.0307961801267C395.3333438850174 372.08079620925713 404.6666774772878 453.84079847754555 428.00001145796375 449.990798370734C451.3333454386397 446.1407982639225 460.6666790309101 360.25079588105444 484.000013011586 352.5507956674314C507.33334699226185 344.85079545380836 516.6666805845323 412.6807973356332 540.0000145652082 413.03079734534333C563.3333485458841 413.3807973550535 572.6666821381544 348.1057955441126 596.0000161188304 354.23079571404C619.3333500995063 360.35579588396746 628.6666836917767 436.48079799592267 652.0000176724526 442.430798160995C675.3333516531285 448.38079832606735 696.3333522357368 395.2157968510973 708.0000192260748 382.7907965063874 " transform="rotate(84, 400, 400)"></path><path d="M103.00000205993659 404.4654365691571C114.25000237204819 396.5341863491184 134.5000029338491 362.17668539592955 157.00000355807228 366.3954355129714C179.50000418229547 370.61418563001325 188.5000044319848 427.7529372152281 211.00000505620795 424.7154371309579C233.50000568043117 421.6779370466878 242.50000593012047 347.9341850007963 265.0000065543437 351.81543510847473C287.5000071785669 355.69668521615324 296.5000074282562 439.12668753077287 319.0000080524794 443.3454376478147C341.5000086767026 447.56418776485657 350.50000892639184 371.0529356421856 373.00000955061506 372.06543567027563C395.5000101748383 373.0779356983657 404.5000104245276 451.9179378856438 427.00001104875076 448.205437782647C449.500011672974 444.49293767965014 458.5000119226633 361.67043538188454 481.00001254688647 354.24543517589086C503.50001317110963 346.8204349698972 512.5000134207988 412.22793678451404 535.0000140450221 412.5654367938774C557.5000146692455 412.9029368032408 566.5000149189347 349.95918505697637 589.0000155431579 355.8654352208349C611.5000161673811 361.7716853846935 620.5000164170704 435.1779374212217 643.0000170412935 440.91543758039865C665.5000176655168 446.6529377395756 685.7500182273176 395.38668631728297 697.0000185394292 383.40543598488415 " transform="rotate(81, 400, 400)"></path><path d="M114.00000198364263 404.30003787904144C124.83333561752788 396.6625376671523 144.33333615852135 363.57753674926676 166.0000034262918 367.6400368619737C187.6666706940623 371.7025369746807 196.3333376011705 426.7250385011839 218.000004868941 423.80003842003487C239.6666721367115 420.8750383388858 248.3333390438197 349.8625363687681 270.0000063115902 353.60003647245844C291.6666735793607 357.33753657614886 300.33334048646896 437.6775388050419 322.0000077542394 441.74003891774885C343.6666750220099 445.8025390304558 352.3333419291181 372.1250369864022 374.0000091968886 373.1000370134519C395.6666764646591 374.07503704050157 404.3333433717673 449.9950391467694 426.0000106395378 446.42003904758724C447.66667790730827 442.84503894840515 456.3333448144165 363.09003673574193 478.00001208218697 355.9400365373777C499.66667934995746 348.79003633901345 508.33334625706556 411.7750380864222 530.0000135248362 412.1000380954388C551.6666807926067 412.4250381044554 560.3333476997147 351.8125364228674 582.0000149674854 357.50003658065714C603.6666822352558 363.1875367384469 612.3333491423641 433.87503869954816 634.0000164101345 439.40003885282965C655.666683677905 444.9250390061111 675.1666842188985 395.557537636496 686.0000178527837 384.02003731640826 " transform="rotate(78, 400, 400)"></path><path d="M125.00000190734869 404.13464300362307C135.41666886300757 396.7908927998835 154.1666693831936 364.9783919173013 175.00000329451137 368.8846420256734C195.83333720582914 372.79089213404546 204.16667077035626 425.69714360183696 225.00000468167406 422.8846435238091C245.83333859299182 420.0721434457812 254.16667215751897 351.79089155143714 275.00000606883674 355.3846416511395C295.8333399801545 358.97839175084175 304.16667354468166 436.2283938940081 325.0000074559994 440.1346440023802C345.8333413673172 444.0408941107523 354.16667493184434 373.19714214531615 375.00000884316205 374.1346421713255C395.8333427544799 375.07214219733476 404.166676319007 448.07214422259227 425.0000102303248 444.6346441272248C445.83334414164256 441.1971440318574 454.1666777061697 364.50964190429664 475.0000116174875 357.6346417135618C495.83334552880524 350.7596415228269 504.1666790933323 411.3221432030277 525.0000130046501 411.6346432116975C545.8333469159679 411.94714322036725 554.166680480495 353.66589160345575 575.0000143918128 359.13464175517663C595.8333483031306 364.60339190689757 604.1666818676579 432.5721437925718 625.0000157789755 437.88464393995787C645.8333496902933 443.1971440873439 664.5833502104794 395.72839277040634 675.0000171661382 384.63464246262964 " transform="rotate(75, 400, 400)"></path><path d="M136.00000183105476 403.9692786457828C146.00000210848728 396.9192784501929 164.00000260786584 366.37927760291393 184.00000316273093 370.12927770695114C204.00000371759597 373.87927781098836 212.000003939542 424.6692792200682 232.00000449440708 421.9692791451614C252.00000504927215 419.2692790702546 260.0000052712182 353.71927725168433 280.0000058260833 357.1692773473986C300.0000063809483 360.61927744311276 308.00000660289436 434.77927950055243 328.00000715775946 438.52927960458965C348.00000771262455 442.27927970862686 356.00000793457053 374.2692778218082 376.0000084894356 375.1692778467771C396.00000904430067 376.06927787174607 404.0000092662467 446.1492798159933 424.0000098211118 442.8492797244405C444.0000103759769 439.5492796328878 452.0000105979229 365.9292775904295 472.000011152788 359.329277407324C492.000011707653 352.72927722421855 500.00001192959905 410.86927883721125 520.0000124844642 411.1692788455343C540.0000130393292 411.46927885385725 548.0000132612753 355.5192773016222 568.0000138161404 360.76927744727425C588.0000143710055 366.01927759292636 596.0000145929514 431.26927940317364 616.0000151478165 436.36927954466427C636.0000157026815 441.46927968615483 654.00001620206 395.8992784218948 664.0000164794926 385.24927812642915 " transform="rotate(72, 400, 400)"></path><path d="M146.9999864959717 403.80388377036445C156.5833200951779 397.0476335829241 173.83332057374906 367.78013277094846 192.9999877721614 371.37388287065073C212.16665497057375 374.96763297035307 219.8333218499387 423.6413843207213 238.99998904835104 421.0538842489356C258.1666562467634 418.4663841771499 265.8333231261284 355.6476324343534 284.9999903245407 358.95388252607955C304.1666575229531 362.26013261780565 311.83332440231806 433.3301345895187 330.9999916007304 436.92388468922104C350.1666587991428 440.5176347889234 357.83332567850766 375.34138298072213 376.99999287692003 376.20388300465066C396.1666600753324 377.06638302857925 403.8333269546974 444.2263848918161 422.99999415310975 441.0638848040781C442.1666613515221 437.9013847163401 449.83332823088705 367.34888275898413 468.9999954292994 361.0238825835081C488.16666262771173 354.698882408032 495.83332950707666 410.41638395381676 514.9999967054891 410.70388396179294C534.1666639039015 410.9913839697691 541.8333307832664 357.3726324822105 560.9999979816788 362.4038826217938C580.1666651800912 367.435132761377 587.8333320594561 429.96638449619735 606.9999992578685 434.8538846317925C626.1666664562807 439.7413847673876 643.4166669348518 396.0701335558051 653.000000534058 385.8638832726505 " transform="rotate(69, 400, 400)"></path><path d="M157.99998641967778 403.63850033903793C167.1666533406576 397.1760001597471 183.6666537984213 369.1809993830748 201.99998764038094 372.6184994784422C220.33332148234058 376.05599957380963 227.66665501912445 422.6135008654661 245.9999888610841 420.13850079680157C264.33332270304373 417.663500728137 271.6666562398276 357.5759990611143 289.99999008178725 360.7384991488523C308.3333239237469 363.90099923659034 315.6666574605308 431.8810011225767 333.99999130249046 435.3185012179442C352.3333251444501 438.7560013133116 359.6666586812339 376.4134995837278 377.99999252319355 377.238499606616C396.3333263651532 378.0634996295042 403.6666599019371 442.3035014117308 421.99999374389677 439.2785013278075C440.3333275858564 436.2535012438841 447.6666611226403 368.76849937163064 465.9999949645999 362.71849920378395C484.3333288065595 356.6684990359373 491.6666623433434 409.96350051451395 509.9999961853031 410.2385005221434C528.3333300272627 410.5135005297728 535.6666635640465 359.22599910689064 553.9999974060063 364.0384992404051C572.3333312479659 368.8509993739195 579.6666647847499 428.6635010333128 597.9999986267094 433.33850116301255C616.3333324686689 438.01350129271225 632.8333329264326 396.2410001338072 641.9999998474125 386.4784998629637 " transform="rotate(66, 400, 400)"></path><path d="M168.99998634338385 403.47310546361956C177.7499865861373 397.30435529247836 193.49998702309355 370.58185455110925 210.9999875086005 373.8631046421418C228.4999879941074 377.1443547331744 235.49998818831023 421.58560596611926 252.99998867381714 419.2231059005758C270.49998915932406 416.86060583503235 277.49998935352687 359.5043542437834 294.9999898390338 362.5231043275333C312.4999903245407 365.5418544112833 319.4999905187435 430.431856211543 336.99999100425043 433.7131063025755C354.49999148975735 436.9943563936081 361.49999168396016 377.4856047426417 378.9999921694671 378.2731047644896C396.49999265497405 379.06060478633736 403.4999928491768 440.3806064875537 420.9999933346837 437.49310640744505C438.4999938201907 434.6056063273364 445.4999940143935 370.18810454018535 462.9999944999004 364.41310437996805C480.4999949854073 358.6381042197508 487.4999951796101 409.51060563111946 504.99999566511707 409.77310563840206C522.4999961506239 410.03560564568465 529.4999963448267 361.07935428747896 546.9999968303338 365.6731044149246C564.4999973158407 370.26685454237014 571.4999975100434 427.3606061263365 588.9999979955503 431.82310625014077C606.4999984810572 436.28560637394503 622.2499989180135 396.4118552677175 630.999999160767 387.0931050091851 " transform="rotate(63, 400, 400)"></path><path d="M179.9999862670899 403.30772584699025C188.33331983161702 397.4327256839986 203.3333202477658 371.98272497793283 219.99998737682003 375.1077250646305C236.66665450587425 378.23272515132817 243.33332135749595 420.55772632556136 259.9999884865502 418.30772626313905C276.6666556156044 416.05772620071673 283.33332246722614 361.4327246852415 299.99998959628033 364.30772476500334C316.6666567253345 367.18272484476523 323.3333235769563 428.98272655929827 339.9999907060105 432.10772664599597C356.6666578350647 435.2327267326936 363.3333246866864 378.5577251603447 379.9999918157406 379.30772518115214C396.6666589447948 380.0577252019596 403.33332579641655 438.4577268221656 419.9999929254708 435.7077267458717C436.666660054525 432.9577266695777 443.3333269061467 371.6077249675291 459.9999940352009 366.1077248149412C476.6666611642551 360.60772466235335 483.33332801587676 409.057726006514 499.99999514493106 409.3077260134498C516.6666622739854 409.5577260203856 523.333329125607 362.9327247268564 539.9999962546613 367.30772484823314C556.6666633837156 371.68272496960986 563.3333302353371 426.0577264781493 579.9999973643913 430.3077265960581C596.6666644934455 434.55772671396693 611.6666649095944 396.5827256604169 619.9999984741214 387.7077254141955 " transform="rotate(60, 400, 400)"></path><path d="M190.99998619079594 403.14232334217735C198.9166530770967 397.5610731873353 213.16665347243807 373.3835725165728 228.99998724503956 376.3523225989356C244.83332101764108 379.3210726812984 251.1666545266817 419.5298237968199 266.99998829928325 417.3923237375187C282.8333220718847 415.2548236782175 289.16665558092535 363.36107223851604 304.99998935352687 366.09232231428985C320.83332312612833 368.8235723900636 327.166656635169 427.53357401887 342.9999904077705 430.5023241012328C358.833324180372 433.47107418359553 365.1666576894126 379.6298226898641 380.9999914620141 380.34232270963116C396.8333252346156 381.05482272939827 403.1666587436563 436.534824268594 418.99999251625775 433.9223241961147C434.83332628885927 431.30982412363545 441.1666597978999 373.0273225066893 456.99999357050143 367.8023223617308C472.8333273431029 362.5773222167723 479.1666608521435 408.6048234937249 494.99999462474506 408.8423235003139C510.8333283973466 409.0798235069029 517.1666619063872 364.7860722780502 532.9999956789886 368.9423223933581C548.8333294515903 373.098572508666 555.1666629606309 424.7548239417784 570.9999967332324 428.7923240537918C586.8333305058338 432.8298241658052 601.0833309011753 396.7535731649327 608.9999977874759 388.3223229310223 " transform="rotate(57, 400, 400)"></path><path d="M201.999986114502 402.97696279903437C209.49998632257638 397.68946265234194 222.99998669711033 374.7844620168827 237.99998711325912 377.5969620949106C252.99998752940792 380.4094621729385 258.99998769586745 418.5019632297484 273.99998811201624 416.4769631735683C288.9999885281651 414.45196311738823 294.99998869462456 365.2894617534605 309.9999891107734 367.8769618252462C324.9999895269222 370.46446189703187 330.99998969338174 426.0844634401116 345.99999010953053 428.8969635181395C360.9999905256793 431.70946359616744 366.9999906921388 380.70196218105343 381.99999110828765 381.3769621997801C396.99999152443644 382.0519622185068 402.99999169089597 434.6119636766922 417.99999210704476 432.13696360802766C432.99999252319355 429.6619635393631 438.99999268965314 374.44696200751935 453.99999310580193 369.49696187019026C468.9999935219507 364.5469617328612 474.9999936884102 408.15196294260573 489.99999410455905 408.37696294884796C504.9999945207079 408.6019629550902 510.9999946871674 366.6394617909139 525.9999951033162 370.576961900153C540.9999955194651 374.51446200939205 546.9999956859245 423.4519633670775 561.9999961020733 427.27696347319545C576.9999965182221 431.1019635793134 590.499996892756 396.92446263111833 597.9999971008303 388.93696240951914 " transform="rotate(54, 400, 400)"></path><path d="M212.99998603820805 402.81155647952426C220.08331956805608 397.81780634098135 232.8333199217826 376.1853057408254 246.99998698147868 378.8415558145184C261.16665404117475 381.4978058882115 266.8333208650532 417.4740568863097 280.9999879247493 415.56155683325073C295.16665498444536 413.64905678019176 300.83332180832383 367.2178054920378 314.99998886801995 369.6615555598354C329.166655927716 372.10530562763296 334.83332275159444 424.63530708498604 348.99998981129056 427.2915571586791C363.1666568709866 429.9478072323721 368.83332369486504 381.77405589587556 382.99999075456117 382.41155591356187C397.16665781425723 383.0490559312482 402.8333246381357 432.6890573084233 416.9999916978318 430.35155724357344C431.1666587575279 428.0140571787236 436.8333255814063 375.86655573198226 450.99999264110244 371.19155560228256C465.1666597007985 366.51655547258287 470.8333265246769 407.6990566151194 484.99999358437304 407.9115566210148C499.16666064406917 408.12405662691026 504.8333274679476 368.49280552741044 518.9999945276437 372.2115556305807C533.1666615873398 375.9303057337509 538.8333284112182 422.1490570160094 552.9999954709143 425.76155711623187C567.1666625306103 429.3740572164544 579.9166628843368 397.09530632093686 586.9999964141849 389.55155611164867 " transform="rotate(51, 400, 400)"></path><path d="M223.9999859619141 402.64617114084905C230.6666528135358 397.94617101045577 242.66665314645485 377.5861704456031 255.99998684969822 380.0861705149612C269.3333205529416 382.58617058431935 274.66665403423895 416.4461715237059 287.99998773748234 414.64617147376805C301.3333214407257 412.84617142383024 306.6666549220231 369.14617021145006 319.99998862526644 371.44617027525953C333.33332232850984 373.746170339069 338.6666558098072 423.1861717106955 351.99998951305054 425.6861717800536C365.33332321629393 428.1861718494117 370.6666566975913 382.8461705915326 383.9999904008347 383.4461706081786C397.3333241040781 384.0461706248245 402.66665758537545 430.76617192098934 415.99999128861884 428.5661718599542C429.3333249918621 426.366171798919 434.66665847315954 377.28617043728013 447.9999921764029 372.8861703152098C461.3333258796463 368.4861701931395 466.6666593609436 407.246171268468 479.99999306418704 407.44617127401665C493.33332676743044 407.6461712795653 498.6666602487278 370.3461702447419 511.99999395197113 373.84617034184333C525.3333276552146 377.34617043894474 530.666661136512 420.8461716457762 543.9999948397553 424.2461717401033C557.3333285429986 427.6461718344304 569.3333288759177 397.26617099159034 575.9999957275394 390.1661707946132 " transform="rotate(48, 400, 400)"></path><path d="M234.99998588562016 402.48081059770607C241.2499860590155 398.07456047546236 252.49998637112708 378.987059945913 264.99998671791775 381.33081001093626C277.4999870647084 383.6745600759595 282.49998720342467 415.4183109566344 294.99998755021534 413.73081090981765C307.499987897006 412.04331086300095 312.4999880357223 371.0745597263945 324.999988382513 373.2308097862159C337.49998872930365 375.3870598460373 342.49998886801995 421.7370611319371 354.9999892148106 424.0808111969603C367.4999895616013 426.42456126198357 372.49998970031754 383.9183100827219 384.9999900471082 384.4808100983275C397.4999903938989 385.0433101139331 402.49999053261513 428.84331132908756 414.9999908794058 426.78081127186715C427.49999122619647 424.7183112146467 432.4999913649127 378.70580993811024 444.9999917117034 374.5808098236693C457.49999205849406 370.4558097092284 462.4999921972103 406.79331071734885 474.999992544001 406.9808107225507C487.4999928907917 407.16831072775256 492.49999302950795 372.1995597576057 504.9999933762987 375.4808098486382C517.4999937230893 378.7620599396708 522.4999938618056 419.5433110710753 534.9999942085963 422.73081115950697C547.4999945553868 425.91831124793856 558.7499948674986 397.43706045777606 564.9999950408939 390.78081027311 " transform="rotate(45, 400, 400)"></path><path d="M245.9999858093262 402.31540618554453C251.83331930449518 398.2029060714504 262.33331959579937 380.3879055772044 273.9999865861373 382.5754056378927C285.66665357647526 384.7629056985811 290.33332037261044 414.39040652054433 301.9999873629484 412.8154064768487C313.6666543532864 411.2404064331531 318.3333211494216 373.0029053723204 329.9999881397595 375.0154054281537C341.66665513009747 377.027905483987 346.33332192623266 420.28790668416013 357.9999889165706 422.47540674484856C369.66665590690855 424.6629068055369 374.3333227030438 384.9904057048927 385.99998969338174 385.5154057194579C397.6666566837197 386.04040573402307 402.3333234798548 426.9204068681673 413.9999904701928 424.9954068147615C425.6666574605308 423.0704067613558 430.33332425666595 380.1254055699217 441.99999124700395 376.27540546311025C453.66665823734184 372.4254053562987 458.3333250334771 406.34040629721113 469.999992023815 406.5154063020662C481.66665901415297 406.69040630692126 486.33332581028816 374.05290540145086 497.99999280062616 377.11540548641455C509.6666597909641 380.1779055713783 514.3333265870992 418.24040662735587 525.9999935774372 421.215406709892C537.6666605677751 424.19040679242823 548.1666608590793 397.60790605494316 553.9999943542483 391.3954058825882 " transform="rotate(42, 400, 400)"></path><path d="M256.99998573303225 402.15001703217206C262.41665254997486 398.33126692622756 272.1666528204716 381.78876646728474 282.9999864543569 383.82001652363823C293.8333200882421 385.8512665799917 298.1666535417962 413.3625173432433 308.99998717568144 411.9000173026688C319.83332080956666 410.4375172620943 324.1666542631208 374.9312662770354 334.999987897006 376.8000163288806C345.8333215308913 378.6687663807258 350.1666549844454 418.8387674951723 360.99998861833063 420.8700175515258C371.8333222522159 422.9012676078793 376.16665570577 386.0625165858525 386.99998933965526 386.55001659937733C397.8333229735405 387.03751661290215 402.1666564270946 424.99751766603606 412.9999900609798 423.210017616445C423.83332369486504 421.4225175668539 428.1666571484192 381.54501646052233 438.9999907823044 377.9700163613402C449.83332441618967 374.3950162621581 454.16665786974374 405.8875171358625 464.999991503629 406.05001714037076C475.8333251375143 406.21251714487903 480.1666585910683 375.9062663040851 490.99999222495364 378.75001638297994C501.83332585883886 381.5937664618748 506.166659312393 416.9375174424254 516.9999929462782 419.7000175190662C527.8333265801634 422.4625175957069 537.5833268506601 397.7787669108994 542.9999936676028 392.01001675085547 " transform="rotate(39, 400, 400)"></path><path d="M267.9999856567383 401.9846355081942C272.99998579545456 398.4596354103992 281.9999860451438 383.1896349867597 291.99998632257643 385.0646350387783C301.9999866000089 386.9396350907969 305.99998671098194 412.3346357953368 315.9999869884145 410.98463575788344C325.99998726584704 409.63463572043 329.99998737682006 376.85963481114493 339.99998765425255 378.584634859002C349.9999879316851 380.3096349068591 353.9999880426581 417.38963593557895 363.99998832009067 419.26463598759756C373.9999885975232 421.13963603961616 377.9999887084962 387.1346350962068 387.9999889859287 387.5846351086913C397.9999892633613 388.03463512117577 401.9999893743343 423.0746360932994 411.99998965176684 421.424636047523C421.9999899291994 419.7746360017466 425.9999900401724 382.9646349805175 435.9999903176049 379.6646348889647C445.99999059503745 376.364634797412 449.99999070601046 405.43463560390836 459.999990983443 405.58463560806985C469.99999126087556 405.73463561223133 473.9999913718486 377.75963483611383 483.9999916492811 380.38463490893986C493.9999919267137 383.0096349817659 497.99999203768664 415.63463588688955 507.9999923151192 418.18463595763484C517.9999925925517 420.7346360283802 526.999992842241 397.94963539625013 531.9999929809572 392.6246352485173 " transform="rotate(36, 400, 400)"></path><path d="M279.0000008392334 401.81924254012443C283.58333429972333 398.587992450479 291.8333345286052 384.59049206214286 301.000001449585 386.3092421098266C310.1666683705648 388.02799215751025 313.8333351389567 411.3067428033385 323.0000020599366 410.0692427690063C332.16666898091637 408.831742734674 335.83333574930833 378.7879919011626 345.00000267028815 380.3692419450316C354.166669591268 381.95049198890064 357.83333635965994 415.94049293189386 367.00000328063976 417.6592429795775C376.1666702016196 419.37799302726125 379.8333369700115 388.20674216246937 389.0000038909913 388.61924217391345C398.16667081197113 389.0317421853576 401.8333375803631 421.1517430764709 411.0000045013429 419.6392430345092C420.16667142232274 418.1267429925475 423.8333381907147 384.3842420564208 433.00000511169446 381.35924197249744C442.1666720326743 378.3342418885741 445.83333880106625 404.98174262786245 455.00000572204607 405.11924263167714C464.1666726430259 405.25674263549183 467.8333394114178 379.6129919240508 477.0000063323977 382.019241990808C486.1666732533775 384.4254920575652 489.83334002176946 414.3317428872619 499.0000069427492 416.66924295211174C508.166673863729 419.0067430169616 516.4166740926108 398.1204924375091 521.0000075531008 393.2392423020873 " transform="rotate(33, 400, 400)"></path><path d="M290.00000076293946 401.65385910879786C294.16666754520304 398.7163590273021 301.66666775327747 385.9913586742691 310.00000131780456 387.55385871761797C318.33333488233166 389.1163587609668 321.6666683081425 410.2788593480834 330.0000018726696 409.1538593168723C338.33333543719675 408.0288592856611 341.6666688630076 380.7163585279235 350.0000024275347 382.15385856780443C358.3333359920618 383.5913586076853 361.66666941787264 414.49135946495187 370.0000029823998 416.0538595083007C378.3333365469269 417.61635955164957 381.66666997273774 389.2788587654751 390.00000353726483 389.6538587758788C398.3333371017919 390.0288587862825 401.66667052760283 419.2288595963855 410.0000040921299 417.8538595582386C418.333337656657 416.4788595200916 421.6666710824679 385.80385866906727 430.00000464699497 383.05385859277334C438.3333382115221 380.3038585164794 441.6666716373329 404.5288591885597 450.00000520186006 404.6538591920276C458.3333387663872 404.77885919549556 461.666672192198 381.4663585487309 470.00000575672516 383.6538586094193C478.3333393212523 385.84135867010764 481.6666727470631 413.02885942437734 490.0000063115902 415.15385948333176C498.3333398761173 417.27885954228617 505.8333400841917 398.29135901551115 510.00000686645524 393.85385889240047 " transform="rotate(30, 400, 400)"></path><path d="M301.00000068664554 401.4884813995172C304.75000079068275 398.844731326171 311.5000009779497 387.39223100844134 319.00000118602406 388.7984810474553C326.5000013940985 390.2047310864693 329.5000014773283 409.2509816148742 337.00000168540265 408.23848158678413C344.5000018934771 407.2259815586941 347.5000019767068 382.64473087673025 355.00000218478124 383.9384809126231C362.50000239285566 385.2322309485159 365.5000024760854 413.04223172005584 373.00000268415977 414.44848175906975C380.5000028922342 415.8547317980837 383.50000297546393 390.3509810905267 391.00000318353835 390.68848109989005C398.5000033916127 391.0259811092534 401.5000034748425 417.3059818383461 409.00000368291694 416.06848180401386C416.5000038909913 414.83098176968156 419.5000039742211 387.2234810037597 427.00000418229547 384.74848093509513C434.5000043903699 382.2734808664306 437.50000447359963 404.07598147130284 445.00000468167406 404.18848147442395C452.5000048897485 404.3009814775451 455.5000049729782 383.3197308954569 463.00000518105264 385.2884809500765C470.50000538912707 387.257231004696 473.5000054723568 411.72598168353875 481.0000056804312 413.6384817365977C488.5000058885056 415.5509817896567 495.25000607577255 398.46223131555917 499.0000061798097 394.46848120475954 " transform="rotate(27, 400, 400)"></path><path d="M312.00000061035155 401.32308366307586C315.33333403616246 398.9730835978792 321.3333342026219 388.7930833154529 328.0000010542436 390.043083350132C334.6666679058653 391.29308338481104 337.333334646514 408.22308385450435 344.0000014981357 407.3230838295354C350.6666683497574 406.4230838045665 353.3333350904061 384.57308319837637 360.0000019420278 385.72308323028113C366.6666687936495 386.8730832621859 369.33333553429816 411.5930839479991 376.0000023859198 412.84308398267814C382.6666692375415 414.0930840173572 385.3333359781902 391.4230833884177 392.0000028298119 391.72308339674066C398.6666696814336 392.02308340506363 401.33333642208225 415.38308405314604 408.00000327370395 414.28308402262843C414.6666701253256 413.1830839921109 417.3333368659743 388.64308331129143 424.000003717596 386.4430832502563C430.6666705692177 384.2430831892211 433.33333730986635 403.62308372688534 440.00000416148805 403.7230837296597C446.66667101310975 403.82308373243404 449.3333377537584 385.17308321502236 456.0000046053801 386.92308326357306C462.6666714570018 388.6730833121237 465.3333381976505 410.4230839155395 472.0000050492722 412.12308396270305C478.66667190089385 413.82308400986653 484.6666720673534 398.63308358844654 488.0000054931642 395.08308348995797 " transform="rotate(24, 400, 400)"></path><path d="M323.0000005340576 401.15770023174935C325.9166672816421 399.1014501747023 331.1666674272942 390.19394992757924 337.0000009224632 391.2876999579234C342.83333441763216 392.3814499882676 345.1666678156997 407.1952003992492 351.0000013108687 406.4077003774014C356.8333348060377 405.6202003555536 359.16666820410535 386.5014498251373 365.0000016992743 387.5076998530539C370.8333351944433 388.5139498809706 373.16666859251086 410.1439504810571 379.00000208767983 411.23770051140133C384.8333355828488 412.3314505417455 387.1666689809164 392.4951999914234 393.0000024760854 392.757699998706C398.83333597125437 393.0202000059886 401.16666936932194 413.4602005730607 407.00000286449097 412.4977005463578C412.83333635965994 411.53520051965495 415.1666697577275 390.06269992393794 421.0000032528965 388.1376998705322C426.83333674806545 386.2126998171264 429.1666701461331 403.17020028758265 435.00000364130204 403.2577002900102C440.833337136471 403.3452002924377 443.16667053453864 387.0264498397025 449.0000040297076 388.55769988218435C454.8333375248766 390.08894992466617 457.16667092294415 409.12020045265496 463.0000044181131 410.60770049392306C468.8333379132821 412.09520053519117 474.0833380589342 398.80395016644866 477.0000048065187 395.69770008027115 " transform="rotate(21, 400, 400)"></path><path d="M334.0000004577637 400.9923139393998C336.5000005271218 399.2298138905023 341.00000065196645 391.5948136786826 346.00000079068275 392.5323137046919C351.000000929399 393.46981373070116 353.0000009848855 406.16731408297113 358.0000011236018 405.49231406424445C363.00000126231805 404.8173140455178 365.00000131780456 388.4298135908752 370.0000014565208 389.29231361480373C375.0000015952371 390.1548136387323 377.00000165072356 408.69481415309224 382.00000178943986 409.6323141791015C387.00000192815617 410.56981420511084 389.0000019836426 393.56731373340614 394.00000212235886 393.79231373964836C399.00000226107517 394.01731374589065 401.0000023165617 411.5373142319524 406.0000024552779 410.71231420906423C411.0000025939942 409.88731418617607 413.00000264948073 391.4823136755615 418.000002788197 389.8323136297851C423.0000029269132 388.18231358400874 425.0000029823998 402.71731398725694 430.00000312111604 402.7923139893377C435.0000032598323 402.8673139914184 437.00000331531885 388.87981360335965 442.0000034540351 390.1923136397727C447.00000359275134 391.5048136761857 449.00000364823785 407.8173141287475 454.00000378695415 409.0923141641202C459.0000039256704 410.3673141994928 463.50000405051503 398.9748138834278 466.00000411987315 396.3123138095614 " transform="rotate(18, 400, 400)"></path><path d="M344.99999656677244 400.82692955439893C347.08332995790425 399.358179513651 350.83333006194147 392.99567933713456 354.99999684420504 393.776929358809C359.16666362646856 394.5581793804834 360.833330339374 405.1394296740417 364.99999712163753 404.57692965843614C369.1666639039011 404.0144296428306 370.8333306168065 390.35817926396174 374.9999973990701 391.0769292839022C379.16666418133366 391.7956793038427 380.83333089423905 407.24567973247593 384.99999767650263 408.02692975415033C389.16666445876615 408.8081797758248 390.8333311716716 394.63942938273755 394.9999979539351 394.8269293879394C399.1666647361987 395.01442939314126 400.83333144910415 409.61442979819276 404.9999982313677 408.9269297791193C409.16666501363125 408.2394297600458 410.8333317265367 392.90192933453363 414.9999985088002 391.5269292963867C419.1666652910638 390.1519292582397 420.8333320039692 402.2644295942799 424.99999878623277 402.3269295960138C429.16666556849634 402.3894295977478 430.83333228140174 390.73317927436545 434.9999990636653 391.82692930470967C439.1666658459289 392.9206793350538 440.8333325588343 406.5144297121887 444.9999993410978 407.5769297416659C449.1666661233614 408.6394297711431 452.9166662273986 399.1456795077556 454.99999961853035 396.92692944620023 " transform="rotate(15, 400, 400)"></path><path d="M355.9999964904785 400.66154516939804C357.66666320338396 399.48654513679975 360.6666632866137 394.39654499558657 363.99999671242455 395.0215450129261C367.3333301382354 395.64654503026566 368.66666350855974 404.1115452651123 371.9999969343706 403.66154525262783C375.33333036018144 403.2115452401433 376.6666637305058 392.2865449370483 379.9999971563166 392.8615449530007C383.3333305821275 393.43654496895306 384.6666639524518 405.79654531185963 387.9999973782626 406.4215453291992C391.3333308040735 407.0465453465387 392.66666417439785 395.71154503206895 395.99999760020864 395.86154503623044C399.33333102601955 396.0115450403919 400.6666643963439 407.6915453644331 403.9999978221547 407.14154534917435C407.33333124796553 406.5915453339155 408.6666646182899 394.3215449935058 411.9999980441007 393.2215449629882C415.33333146991157 392.12154493247067 416.6666648402359 401.8115452013028 419.99999826604676 401.86154520268997C423.3333316918576 401.91154520407713 424.66666506218195 392.58654494537126 427.9999984879928 393.46154496964664C431.33333191380365 394.33654499392196 432.666665284128 405.21154529562983 435.99999870993884 406.06154531921163C439.33333213574963 406.9115453427934 442.3333322189794 399.3165451320834 443.9999989318849 397.5415450828391 " transform="rotate(12, 400, 400)"></path><path d="M366.9999964141846 400.4961579233742C368.2499964488636 399.6149078989255 370.499996511286 395.7974077930156 372.9999965806441 396.26615780602026C375.49999665000223 396.7349078190249 376.49999667774546 403.0836579951599 378.99999674710364 402.7461579857966C381.49999681646176 402.4086579764332 382.49999684420504 394.2149077491119 384.9999969135631 394.6461577610762C387.4999969829213 395.0774077730405 388.4999970106645 404.34740803022044 390.9999970800227 404.8161580432251C393.4999971493808 405.2849080562297 394.49999717712404 396.7836578203774 396.99999724648217 396.8961578234985C399.49999731584035 397.00865782661964 400.4999973435836 405.76865806965054 402.9999974129417 405.35615805820646C405.4999974822998 404.9436580467623 406.4999975100431 395.74115779145507 408.9999975794012 394.91615776856685C411.49999764875935 394.0911577456787 412.49999767650263 401.3586579473028 414.99999774586075 401.39615794834316C417.4999978152189 401.43365794938353 418.49999784296216 394.43990775535417 420.9999979123203 395.09615777356066C423.4999979816784 395.75240779176715 424.4999980094217 403.9086580180481 426.9999980787798 404.5461580357344C429.49999814813793 405.18365805342074 431.74999821056025 399.48740789538823 432.99999824523934 398.156157858455 " transform="rotate(9, 400, 400)"></path><path d="M378.0000001525879 400.33077258469905C378.8333335090406 399.74327256839985 380.3333335506555 397.19827249779325 382.0000002635609 397.51077250646307C383.66666697646633 397.8232725151328 384.3333336616285 402.0557726325561 386.0000003745339 401.8307726263139C387.66666708743935 401.60577262007166 388.3333337726015 396.1432724685242 390.0000004855069 396.43077247650035C391.66666719841237 396.71827248447653 392.33333388357454 402.8982726559298 394.00000059647994 403.2107726645996C395.6666673093854 403.5232726732694 396.33333399454756 397.85577251603445 398.00000070745295 397.9307725181152C399.6666674203584 398.00577252019593 400.3333341055206 403.84577268221653 402.000000818426 403.57077267458715C403.6666675313314 403.29577266695776 404.33333421649354 397.1607724967529 406.000000929399 396.6107724814941C407.66666764230445 396.06077246623533 408.33333432746656 400.9057726006514 410.000001040372 400.930772601345C411.66666775327747 400.95577260203856 412.3333344384396 396.29327247268566 414.00000115134503 396.7307724848233C415.6666678642505 397.168272496961 416.3333345494126 402.60577264781494 418.00000126231805 403.0307726596058C419.66666797522345 403.4557726713967 421.16666801683834 399.65827256604166 422.00000137329107 398.77077254141955 " transform="rotate(6, 400, 400)"></path><path d="M389.00000007629393 400.1653853386752C389.4166667545203 399.87163533052563 390.1666667753277 398.5991352952223 391.00000013178044 398.7553852995572C391.83333348823317 398.91163530389207 392.1666668308143 401.02788536260374 393.00000018726695 400.9153853594826C393.8333335437197 400.8028853563615 394.16666688630073 398.07163528058777 395.00000024275346 398.21538528457586C395.8333335992062 398.35913528856395 396.1666669417873 401.4491353742906 397.00000029823997 401.6053853786255C397.8333336546927 401.7616353829604 398.16666699727375 398.9278853043429 399.0000003537265 398.9653853053833C399.8333337101792 399.00288530642365 400.16666705276026 401.92288538743395 401.000000409213 401.78538538361926C401.8333337656657 401.64788537980456 402.16666710824677 398.5803852947021 403.0000004646995 398.30538528707274C403.8333338211522 398.03038527944335 404.1666671637333 400.4528853466514 405.000000520186 400.4653853469982C405.83333387663873 400.47788534734497 406.1666672192198 398.1466352826685 407.0000005756725 398.36538528873734C407.83333393212524 398.5841352948062 408.1666672747063 401.3028853702331 409.000000631159 401.5153853761286C409.8333339876117 401.72788538202406 410.5833340084192 399.8291353293465 411.00000068664554 399.38538531703546 " transform="rotate(3, 400, 400)"></path></g></svg>