<svg xmlns="http://www.w3.org/2000/svg" version="1.1" xmlns:xlink="http://www.w3.org/1999/xlink" xmlns:svgjs="http://svgjs.dev/svgjs" viewBox="0 0 800 800"><defs><linearGradient x1="50%" y1="0%" x2="50%" y2="100%" id="wwwhirl-grad"><stop stop-color="hsla(212, 98%, 39%, 1.00)" stop-opacity="1" offset="45%"></stop><stop stop-color="hsla(232, 3%, 98%, 1.00)" stop-opacity="1" offset="100%"></stop></linearGradient></defs><g stroke-width="2" stroke="url(#wwwhirl-grad)" fill="none" stroke-linecap="round"><path d="M37.00000251770027 414.0200020890624C50.75000289917 398.96375167135307 75.50000358581553 336.79999994672835 103.000004348755 341.7500000840575C130.50000511169446 346.7000002213866 141.5000054168703 432.83000261091297 169.00000617980973 437.7800027482421C196.5000069427492 442.7300028855712 207.50000724792503 361.79750064024034 235.00000801086446 365.5100007432372C262.500008773804 369.222500846234 273.5000090789798 448.58750304807734 301.0000098419193 455.6000032426269C328.50001060485874 462.6125034371765 339.5000109100345 398.757501665631 367.000011672974 399.1700016770751C394.50001243591345 399.5825016885192 405.5000127410893 467.2737535664947 433.0000135040287 457.5800032975585C460.5000142669682 447.8862530286224 471.50001457214404 352.84625039190354 499.0000153350834 352.6400003861815C526.5000160980228 352.43375038045946 537.5000164031987 445.6587529668243 565.0000171661382 456.5900032700927C592.5000179290777 467.52125357336115 603.5000182342535 408.2037519277007 631.000018997193 405.11000184187003C658.5000197601325 402.0162517560393 669.5000200653083 444.62750293821404 697.0000208282477 441.7400028581054C724.5000215911871 438.85250277799673 749.2500222778326 401.76875174917285 763.0000226593024 391.2500014573485 " transform="rotate(99, 400, 400)"></path><path d="M48.00000244140632 413.59516186388487C61.33333614464971 398.99516145883337 85.3333368104878 338.71515978647005 112.00000421697456 343.51515991963765C138.6666716234613 348.31516005280525 149.33333858605602 431.8351623699218 176.00000599254278 436.6351625030894C202.66667339902952 441.435162636257 213.33334036162427 362.9551604589665 240.000007768111 366.5551605588422C266.6666751745978 370.15516065871793 277.3333421371925 447.1151627938387 304.00000954367925 453.91516298249286C330.66667695016605 460.71516317114697 341.3333439127607 398.7951614532847 368.00001131924745 399.195161464382C394.66667872573424 399.5951614754793 405.33334568832896 465.2351632965465 432.00001309481576 455.8351630357599C458.66668050130244 446.4351627749733 469.3333474638972 354.27516021815507 496.0000148703839 354.0751602126064C522.6666822768707 353.8751602070578 533.3333492394653 444.2751627150479 560.0000166459522 454.87516300912637C586.666684052439 465.47516330320485 597.3333510150337 407.9551617074129 624.0000184215204 404.9551616241831C650.6666858280073 401.9551615409534 661.3333527906019 443.2751626873046 688.0000201970887 440.4751626096235C714.6666876035754 437.6751625319424 738.6666882694134 401.715161534295 752.0000219726569 391.5151612513138 " transform="rotate(96, 400, 400)"></path><path d="M59.00000236511238 413.17030256522094C71.9166693901294 399.02655217282734 95.16667003516005 340.6303005527254 121.00000408519412 345.2803006817315C146.83333813522813 349.9303008107376 157.1666717552418 430.8403030554443 183.0000058052758 435.4903031844504C208.83333985530987 440.1403033134565 219.1666734753235 364.11280120420633 245.00000752535757 367.6003013009609C270.8333415753916 371.0878013977155 281.1666751954052 445.6428034661138 307.0000092454393 452.23030364887245C332.83334329547336 458.8178038316312 343.16667691548696 398.8328021674521 369.00001096552097 399.2203021782026C394.83334501555504 399.6078021889531 405.1666786355687 463.1965539531119 431.0000126856027 454.0903037004749C456.8333467356368 444.98405344783794 467.16668035565044 355.7040509709202 493.0000144056845 355.51030096554496C518.8333484557185 355.3165509601697 529.1666820757321 442.89155338978514 555.0000161257661 453.1603036746737C580.8333501758003 463.4290539595622 591.1666837958139 407.70655241363875 617.000017845848 404.80030233300994C642.8333518958821 401.89405225238113 653.1666855158957 441.9228033629089 679.0000195659296 439.2103032876553C704.8333536159636 436.4978032124017 728.0833542609943 401.6615522459308 741.0000212860114 391.78030197179277 " transform="rotate(93, 400, 400)"></path><path d="M70.00000228881842 412.74546234004345C82.50000263560909 399.05796196030764 105.00000325983231 342.545460392467 130.00000395341365 347.04546051731165C155.00000464699497 351.5454606421563 165.00000492442751 429.8454628144531 190.00000561800886 434.3454629392977C215.0000063115902 438.84546306414234 225.00000658902275 365.27046102293247 250.00000728260406 368.6454611165659C275.00000797618543 372.0204612101994 285.000008253618 444.17046321187513 310.0000089471993 450.5454633887384C335.00000964078066 456.92046356560166 345.00000991821315 398.8704619551058 370.0000106117945 399.2454619655095C395.00001130537584 399.6204619759132 405.0000115828084 461.1579636831637 430.0000122763897 452.34546343867623C455.000012969971 443.5329631941888 465.0000132474036 357.13296079717173 490.00001394098496 356.9454607919699C515.0000146345662 356.757960786768 525.0000149119987 441.50796313800873 550.0000156055801 451.44546341370733C575.0000162991615 461.3829636894059 585.000016576594 407.45796219335097 610.0000172701755 404.6454621153231C635.0000179637568 401.83296203729515 645.0000182411893 440.57046311199946 670.0000189347705 437.94546303917343C695.0000196283519 435.32046296634735 717.5000202525752 401.6079620310529 730.0000205993658 392.0454617657581 " transform="rotate(90, 400, 400)"></path><path d="M81.00000221252448 412.3206144854713C93.08333588108879 399.0893641183934 114.83333648450457 344.46061260281414 139.0000038216332 348.8106127234973C163.1666711587618 353.16061284418043 172.83333809361326 428.85061494406733 197.0000054307419 433.2006150647505C221.16667276787052 437.5506151854336 230.833339702722 366.42811321226407 255.00000703985063 369.69061330277646C279.16667437697924 372.9531133932888 288.83334131183074 442.698115328242 313.00000864895935 448.8606154992098C337.16667598608797 455.0231156701776 346.8333429209394 398.90811411336495 371.000010258068 399.27061412342186C395.16667759519663 399.6331141334788 404.8333445300481 459.1193657838209 429.00001186717674 450.6006155474831C453.16667920430535 442.08186531114524 462.8333461391569 358.56186299402873 487.00001347628546 358.3806129890002C511.1666808134141 358.19936298397175 520.8333477482655 440.1243652568378 545.0000150853941 449.73061552334644C569.1666824225229 459.3368657898551 578.8333493573742 407.20936434366865 603.000016694503 404.49061426824164C627.1666840316316 401.7718641928147 636.8333509664831 439.2181152316955 661.0000183036116 436.680615161297C685.1666856407402 434.1431150908985 706.9166862441559 401.5543641867805 719.0000199127203 392.3106139303288 " transform="rotate(87, 400, 400)"></path><path d="M92.00000213623053 411.89576663089923C103.6666691265685 399.1207662764792 124.66666970917683 346.37576481316125 148.00000368985275 350.5757649296829C171.33333767052864 354.7757650462046 180.666671262799 427.8557670736816 204.00000524347493 432.05576719020326C227.33333922415085 436.2557673067249 236.66667281642125 367.58576540159567 260.00000679709717 370.73576548898694C283.33334077777306 373.88576557637816 292.66667437004344 441.22576744460883 316.0000083507193 447.1757676096812C339.3333423313953 453.1257677747536 348.66667592366565 398.9457662716241 372.00000990434154 399.29576628133424C395.3333438850174 399.64576629104437 404.6666774772878 457.0807678844782 428.00001145796375 448.8557676562899C451.3333454386397 440.63076742810165 460.6666790309101 359.99076519088567 484.000013011586 359.8157651860306C507.33334699226185 359.64076518117554 516.6666805845323 438.7407673756669 540.0000145652082 448.01576763298556C563.3333485458841 457.2907678903042 572.6666821381544 406.9607664939863 596.0000161188304 404.33576642116026C619.3333500995063 401.71076634833423 628.6666836917767 437.8657673513915 652.0000176724526 435.41576728342056C675.3333516531285 432.9657672154496 696.3333522357368 401.50076634250814 708.0000192260748 392.57576609489956 " transform="rotate(84, 400, 400)"></path><path d="M103.00000205993659 411.4709111469326C114.25000237204819 399.1521608051704 134.5000029338491 348.2909093941139 157.00000355807228 352.3409095064741C179.50000418229547 356.3909096188342 188.5000044319848 426.8609115739013 211.00000505620795 430.91091168626144C233.50000568043117 434.9609117986216 242.50000593012047 368.74340996153273 265.0000065543437 371.7809100458029C287.5000071785669 374.81841013007306 296.5000074282562 439.7534119315812 319.0000080524794 445.4909120907581C341.5000086767026 451.22841224993505 350.50000892639184 398.98341080048874 373.00000955061506 399.3209108098521C395.5000101748383 399.6584108192154 404.5000104245276 455.04216235574086 427.00001104875076 447.11091213570216C449.500011672974 439.1796619156635 458.5000119226633 361.41965975834813 481.00001254688647 361.2509097536664C503.50001317110963 361.08215974898474 512.5000134207988 437.35716186510143 535.0000140450221 446.30091211323014C557.5000146692455 455.2446623613589 566.5000149189347 406.71216101490944 589.0000155431579 404.1809109446843C611.5000161673811 401.6496608744592 620.5000164170704 436.513411841693 643.0000170412935 434.15091177614966C665.5000176655168 431.78841171060617 685.7500182273176 401.4471608688412 697.0000185394292 392.8409106300758 " transform="rotate(81, 400, 400)"></path><path d="M114.00000198364263 411.04607473645234C124.83333561752788 399.18357440734803 144.33333615852135 350.2060730485528 166.0000034262918 354.1060731567515C187.6666706940623 358.00607326495015 196.3333376011705 425.8660751476074 218.000004868941 429.7660752558061C239.6666721367115 433.66607536400477 248.3333390438197 369.9010735949562 270.0000063115902 372.8260736761052C291.6666735793607 375.75107375725423 300.33334048646896 438.28107549203986 322.0000077542394 443.80607564532136C343.6666750220099 449.3310757986028 352.3333419291181 399.0210744028397 374.0000091968886 399.3460744118563C395.6666764646591 399.67107442087286 404.3333433717673 453.0035759004899 426.0000106395378 445.3660756886008C447.66667790730827 437.72857547671174 456.3333448144165 362.84857339929687 478.00001208218697 362.6860733947886C499.66667934995746 362.5235733902803 508.33334625706556 435.9735754280223 530.0000135248362 444.58607566696105C551.6666807926067 453.1985759058999 560.3333476997147 406.46357460931887 582.0000149674854 404.0260745416947C603.6666822352558 401.5885744740705 612.3333491423641 435.1610754054809 634.0000164101345 432.88607534236496C655.666683677905 430.6110752792491 675.1666842188985 401.3935744686606 686.0000178527837 393.10607423873836 " transform="rotate(78, 400, 400)"></path><path d="M125.00000190734869 410.62121543778846C135.41666886300757 399.21496512134195 154.1666693831936 352.12121381480813 175.00000329451137 355.87121391884534C195.83333720582914 359.62121402288255 204.16667077035626 424.87121583312984 225.00000468167406 428.621215937167C245.83333859299182 432.3712160412042 254.16667215751897 371.058714340196 275.00000606883674 373.8712144182239C295.8333399801545 376.6837144962518 304.16667354468166 436.8087161643149 325.0000074559994 442.12121631170095C345.8333413673172 447.433716459087 354.16667493184434 399.05871511700707 375.00000884316205 399.3712151256768C395.8333427544799 399.68371513434664 404.166676319007 450.96496655705533 425.0000102303248 443.62121635331584C445.83334414164256 436.2774661495763 454.1666777061697 364.27746415206207 475.0000116174875 364.1212141477272C495.83334552880524 363.9649641433923 504.1666790933323 434.58996610275955 525.0000130046501 442.87121633250837C545.8333469159679 451.1524665622572 554.166680480495 406.21496531554476 575.0000143918128 403.8712152505215C595.8333483031306 401.5274651854983 604.1666818676579 433.80871608108515 625.0000157789755 431.6212160203968C645.8333496902933 429.4337159597084 664.5833502104794 401.3399651802964 675.0000171661382 393.37121495921735 " transform="rotate(75, 400, 400)"></path><path d="M136.00000183105476 410.1963675832164C146.00000210848728 399.2463672794278 164.00000260786584 354.03636602515525 184.00000316273093 357.636366125031C204.00000371759597 361.2363662249067 212.000003939542 423.8763679627441 232.00000449440708 427.4763680626198C252.00000504927215 431.0763681624955 260.0000052712182 372.2163665295276 280.0000058260833 374.9163666044344C300.0000063809483 377.6163666793412 308.00000660289436 435.33636828068177 328.00000715775946 440.43636842217234C348.00000771262455 445.53636856366296 356.00000793457053 399.0963672752663 376.0000084894356 399.39636728358926C396.00000904430067 399.6963672919122 404.0000092662467 448.9263686577126 424.0000098211118 441.8763684621226C444.0000103759769 434.8263682665327 452.0000105979229 365.706366348919 472.000011152788 365.5563663447575C492.000011707653 365.40636634059604 500.00001192959905 433.2063682215886 520.0000124844642 441.1563684421475C540.0000130393292 449.10636866270636 548.0000132612753 405.9663674658624 568.0000138161404 403.7163674034401C588.0000143710055 401.46636734101776 596.0000145929514 432.4563682007812 616.0000151478165 430.35636814252035C636.0000157026815 428.2563680842595 654.00001620206 401.286367336024 664.0000164794926 393.6363671237881 " transform="rotate(72, 400, 400)"></path><path d="M146.9999864959717 409.77151591394704C156.5833200951779 399.2777656228163 173.83332057374906 355.9515144208051 192.9999877721614 359.40151451651934C212.16665497057375 362.8515146122336 219.8333218499387 422.8815162776611 238.99998904835104 426.3315163733753C258.1666562467634 429.7815164690895 265.8333231261284 373.374014904162 284.9999903245407 375.96151497594764C304.1666575229531 378.5490150477333 311.83332440231806 433.8640165823514 330.9999916007304 438.7515167179465C350.1666587991428 443.63901685354165 357.83332567850766 399.1340156188282 376.99999287692003 399.42151562680436C396.1666600753324 399.70901563478054 403.8333269546974 446.88776694367255 422.99999415310975 440.1315167562322C442.1666613515221 433.37526656879186 449.83332823088705 367.13526473107873 468.9999954292994 366.99151472709065C488.16666262771173 366.84776472310256 495.83332950707666 431.82276652572045 514.9999967054891 439.44151673708933C534.1666639039015 447.06026694845826 541.8333307832664 405.7177658014828 560.9999979816788 403.5615157416614C580.1666651800912 401.40526568184004 587.8333320594561 431.10401650577995 606.9999992578685 429.09151644994665C626.1666664562807 427.0790163941134 643.4166669348518 401.2327656770543 653.000000534058 393.90151547366156 " transform="rotate(69, 400, 400)"></path><path d="M157.99998641967778 409.3466718740722C167.1666533406576 399.3091715955993 183.6666537984213 357.86667044584954 201.99998764038094 361.16667053740224C220.33332148234058 364.466670628955 227.66665501912445 421.8866722219726 245.9999888610841 425.1866723135253C264.33332270304373 428.4866724050781 271.6666562398276 374.53167090819085 289.99999008178725 377.0066709768554C308.3333239237469 379.48167104551993 315.6666574605308 432.3916725134155 333.99999130249046 437.0666726431152C352.3333251444501 441.7416727728149 359.6666586812339 399.1716715917846 377.99999252319355 399.446671599414C396.3333263651532 399.7216716070434 403.6666599019371 444.8491728590271 421.99999374389677 438.3866726797363C440.3333275858564 431.9241725004455 447.6666611226403 368.564170742633 465.9999949645999 368.42667073881825C484.3333288065595 368.28917073500355 491.6666623433434 430.4391724592468 509.9999961853031 437.7266726614257C528.3333300272627 445.0141728636047 535.6666635640465 405.46917176649777 553.9999974060063 403.40667170927725C572.3333312479659 401.34417165205684 579.6666647847499 429.75167244017325 597.9999986267094 427.82667238676754C616.3333324686689 425.9016723333618 632.8333329264326 401.17917164747917 641.9999998474125 394.1666714529296 " transform="rotate(66, 400, 400)"></path><path d="M168.99998634338385 408.9218240195001C177.7499865861373 399.3405737536851 193.49998702309355 359.78182265619665 210.9999875086005 362.9318227435879C228.4999879941074 366.08182283097915 235.49998818831023 420.8918243515869 252.99998867381714 424.0418244389781C270.49998915932406 427.1918245263694 277.49998935352687 375.68932309752245 294.9999898390338 378.0518231630659C312.4999903245407 380.4143232286093 319.4999905187435 430.9193246297823 336.99999100425043 435.3818247535866C354.49999148975735 439.8443248773909 361.49999168396016 399.2093237500438 378.9999921694671 399.4718237573264C396.49999265497405 399.734323764609 403.4999928491768 442.8105749596843 420.9999933346837 436.6418247885431C438.4999938201907 430.47307461740195 445.4999940143935 369.99307293948993 462.9999944999004 369.86182293584864C480.4999949854073 369.73057293220734 487.4999951796101 429.05557457807583 504.99999566511707 436.0118247710649C522.4999961506239 442.96807496405387 529.4999963448267 405.2205739168154 546.9999968303338 403.25182386219586C564.4999973158407 401.28307380757633 571.4999975100434 428.39932455986934 588.9999979955503 426.5618245088911C606.4999984810572 424.72432445791287 622.2499989180135 401.12557380320675 630.999999160767 394.43182361750036 " transform="rotate(63, 400, 400)"></path><path d="M179.9999862670899 408.49698379432255C188.33331983161702 399.3719835411654 203.3333202477658 361.6969824959383 219.99998737682003 364.69698257916804C236.66665450587425 367.69698266239783 243.33332135749595 419.89698411059567 259.9999884865502 422.8969841938254C276.6666556156044 425.89698427705514 283.33332246722614 376.8469829162486 299.99998959628033 379.0969829786709C316.6666567253345 381.3469830410932 323.3333235769563 429.4469843755437 339.9999907060105 433.69698449345253C356.6666578350647 437.94698461136136 363.3333246866864 399.2469835376975 379.9999918157406 399.4969835446333C396.6666589447948 399.7469835515691 403.33332579641655 440.7719846897361 419.9999929254708 434.89698452674446C436.666660054525 429.02198436375284 443.3333269061467 371.42198276574146 459.9999940352009 371.2969827622735C476.6666611642551 371.1719827588056 483.33332801587676 427.6719843262994 499.99999514493106 434.29698451009847C516.6666622739854 440.92198469389757 523.333329125607 404.9719836965276 539.9999962546613 403.096983644509C556.6666633837156 401.2219835924904 563.3333302353371 427.0469843089599 579.9999973643913 425.2969842604092C596.6666644934455 423.54698421185856 611.6666649095944 401.0719835883289 619.9999984741214 394.6969834114657 " transform="rotate(60, 400, 400)"></path><path d="M190.99998619079594 408.0721321250532C198.9166530770967 399.4033818845539 213.16665347243807 363.61213089158815 228.99998724503956 366.4621309706564C244.83332101764108 369.3121310497247 251.1666545266817 418.90213242551266 266.99998829928325 421.7521325045809C282.8333220718847 424.60213258364917 289.16665558092535 378.0046312908829 304.99998935352687 380.1421313501842C320.83332312612833 382.2796314094853 327.166656635169 427.9746326772133 342.9999904077705 432.0121327892267C358.833324180372 436.0496329012401 365.1666576894126 399.2846318812594 380.9999914620141 399.5221318878484C396.8333252346156 399.7596318944374 403.1666587436563 438.73338297569603 418.99999251625775 433.15213282085404C434.83332628885927 427.570882666012 441.1666597978999 372.85088114790113 456.99999357050143 372.7321311446066C472.8333273431029 372.6133811413121 479.1666608521435 426.2883826304312 494.99999462474506 432.5821328050404C510.8333283973466 438.8758829796495 517.1666619063872 404.723382032148 532.9999956789886 402.9421319827303C548.8333294515903 401.1608819333126 555.1666629606309 425.6946326139587 570.9999967332324 424.03213256783556C586.8333305058338 422.3696325217124 601.0833309011753 401.01838192935924 608.9999977874759 394.96213176133915 " transform="rotate(57, 400, 400)"></path><path d="M201.999986114502 407.64728045578386C209.49998632257638 399.4347802279424 222.99998669711033 365.527279287238 237.99998711325912 368.2272793621448C252.99998752940792 370.9272794370516 258.99998769586745 417.90728074042966 273.99998811201624 420.6072808153364C288.9999885281651 423.3072808902432 294.99998869462456 379.1622796655173 309.9999891107734 381.1872797216974C324.9999895269222 383.2122797778775 330.99998969338174 426.5022809788829 345.99999010953053 430.32728108500083C360.9999905256793 434.1522811911188 366.9999906921388 399.32228022482127 381.99999110828765 399.5472802310635C396.99999152443644 399.7722802373057 402.99999169089597 436.69478126165603 417.99999210704476 431.40728111496355C432.99999252319355 426.11978096827113 438.99999268965314 374.27977953006086 453.99999310580193 374.16727952693975C468.9999935219507 374.05477952381864 474.9999936884102 424.90478093456306 489.99999410455905 430.8672810999822C504.9999945207079 436.8297812654014 510.9999946871674 404.4747803677684 525.9999951033162 402.78728032095165C540.9999955194651 401.0997802741349 546.9999956859245 424.3422809189575 561.9999961020733 422.76728087526186C576.9999965182221 421.1922808315662 590.499996892756 400.96478027038955 597.9999971008303 395.2272801112126 " transform="rotate(54, 400, 400)"></path><path d="M212.99998603820805 407.2224287865145C220.08331956805608 399.4661785713309 232.8333199217826 367.4424276828879 246.99998698147868 369.9924277536332C261.16665404117475 372.5424278243785 266.8333208650532 416.91242905534665 280.9999879247493 419.46242912609193C295.16665498444536 422.0124291968372 300.83332180832383 380.31992804015164 314.99998886801995 382.2324280932106C329.166655927716 384.1449281462696 334.83332275159444 425.0299292805525 348.99998981129056 428.642429380775C363.1666568709866 432.25492948099753 368.83332369486504 399.35992856838317 382.99999075456117 399.5724285742786C397.16665781425723 399.78492858017404 402.8333246381357 434.656179547616 416.9999916978318 429.6624294090731C431.1666587575279 424.6686792705302 436.8333255814063 375.70867791222054 450.99999264110244 375.6024279092728C465.1666597007985 375.4961779063251 470.8333265246769 423.52117923869486 484.99999358437304 429.15242939492407C499.16666064406917 434.7836795511532 504.8333274679476 404.22617870338877 518.9999945276437 402.632428659173C533.1666615873398 401.0386786149572 538.8333284112182 422.98992922395627 552.9999954709143 421.50242918268816C567.1666625306103 420.0149291414201 579.9166628843368 400.9111786114199 586.9999964141849 395.49242846108615 " transform="rotate(51, 400, 400)"></path><path d="M223.9999859619141 406.79757711724517C230.6666528135358 399.4975769147194 242.66665314645485 369.35757607853776 255.99998684969822 371.75757614512156C269.3333205529416 374.15757621170536 274.66665403423895 415.91757737026364 287.99998773748234 418.31757743684744C301.3333214407257 420.71757750343124 306.6666549220231 381.477576414786 319.99998862526644 383.27757646472384C333.33332232850984 385.0775765146617 338.6666558098072 423.5575775822221 351.99998951305054 426.95757767654914C365.33332321629393 430.3575777708762 370.6666566975913 399.39757691194507 383.9999904008347 399.5975769174937C397.3333241040781 399.79757692304236 402.66665758537545 432.617577833576 415.99999128861884 427.9175777031827C429.3333249918621 423.21757757278937 434.66665847315954 377.13757629438027 447.9999921764029 377.03757629160594C461.3333258796463 376.9375762888316 466.6666593609436 422.13757754282665 479.99999306418704 427.4375776898659C493.33332676743044 432.7375778369052 498.6666602487278 403.9775770390092 511.99999395197113 402.4775769973943C525.3333276552146 400.97757695577945 530.666661136512 421.63757752895503 543.9999948397553 420.2375774901145C557.3333285429986 418.83757745127394 569.3333288759177 400.85757695245024 575.9999957275394 395.7575768109597 " transform="rotate(48, 400, 400)"></path><path d="M234.99998588562016 406.3727292626731C241.2499860590155 399.5289790728052 252.49998637112708 371.2727282888849 264.99998671791775 373.5227283513072C277.4999870647084 375.7727284137295 282.49998720342467 414.9227294998779 294.99998755021534 417.1727295623002C307.499987897006 419.42272962472254 312.4999880357223 382.6352286041176 324.999988382513 384.3227286509343C337.49998872930365 386.0102286977511 342.49998886801995 422.08522969858893 354.9999892148106 425.2727297870206C367.4999895616013 428.46022987545217 372.49998970031754 399.4352290702043 384.9999900471082 399.62272907540614C397.4999903938989 399.810229080608 402.49999053261513 430.5789799342332 414.9999908794058 426.1727298119895C427.49999122619647 421.7664796897458 432.4999913649127 378.56647849123726 444.9999917117034 378.4727284886363C457.49999205849406 378.37897848603535 462.4999921972103 420.75397966165576 474.999992544001 425.72272979950503C487.4999928907917 430.6914799373543 492.49999302950795 403.7289791893269 504.9999933762987 402.3227291503129C517.4999937230893 400.91647911129894 522.4999938618056 420.28522964865107 534.9999942085963 418.9727296122381C547.4999945553868 417.66022957582504 558.7499948674986 400.8039791081778 564.9999950408939 396.0227289755304 " transform="rotate(45, 400, 400)"></path><path d="M245.9999858093262 405.94788331544964C251.83331930449518 399.5603831382396 262.33331959579937 373.1878824065806 273.9999865861373 375.28788246484146C285.66665357647526 377.3878825231023 290.33332037261044 413.9278835368408 301.9999873629484 416.0278835951016C313.6666543532864 418.12788365336246 318.3333211494216 383.79288270079786 329.9999881397595 385.36788274449344C341.66665513009747 386.9428827881891 346.33332192623266 420.61288372230445 357.9999889165706 423.5878838048406C369.66665590690855 426.5628838873768 374.3333227030438 399.472883135812 385.99998969338174 399.6478831406671C397.6666566837197 399.8228831455222 402.3333234798548 428.5403839422391 413.9999904701928 424.42788382814496C425.6666574605308 420.3153837140508 430.33332425666595 379.99538259544283 441.99999124700395 379.9078825930153C453.66665823734184 379.82038259058777 458.3333250334771 419.37038368783345 469.999992023815 424.0078838164928C481.66665901415297 428.6453839451521 486.33332581028816 403.48038324699314 497.99999280062616 402.16788321058016C509.6666597909641 400.8553831741671 514.3333265870992 418.93288367569573 525.9999935774372 417.7078836417103C537.6666605677751 416.48288360772483 548.1666608590793 400.75038317125404 553.9999943542483 396.2878830474498 " transform="rotate(42, 400, 400)"></path><path d="M256.99998573303225 405.52303355352893C262.41665254997486 399.59178338897675 272.1666528204716 375.1030327095791 282.9999864543569 377.05303276367846C293.8333200882421 379.0030328177778 298.1666535417962 412.9330337591064 308.99998717568144 414.88303381320577C319.83332080956666 416.8330338673051 324.1666542631208 384.9505329827808 334.999987897006 386.41303302335535C345.8333215308913 387.8755330639298 350.1666549844454 419.14053393132264 360.99998861833063 421.9030340079634C371.8333222522159 424.66553408460413 376.16665570577 399.5105333867226 386.99998933965526 399.6730333912309C397.8333229735405 399.83553339573916 402.1666564270946 426.50178413554767 412.9999900609798 422.68303402960316C423.83332369486504 418.8642839236586 428.1666571484192 381.4242828849512 438.9999907823044 381.343032882697C449.83332441618967 381.26178288044287 454.16665786974374 417.9867838993139 464.999991503629 422.29303401878326C475.8333251375143 426.59928413825264 480.1666585910683 403.2317834899622 490.99999222495364 402.0130334561501C501.83332585883886 400.794283422338 506.166659312393 417.5805338880432 516.9999929462782 416.4430338564852C527.8333265801634 415.3055338249273 537.5833268506601 400.69678341963305 542.9999936676028 396.55303330467194 " transform="rotate(39, 400, 400)"></path><path d="M267.9999856567383 405.09818760630543C272.99998579545456 399.62318745441115 281.9999860451438 377.0181868272749 291.99998632257643 378.8181868772127C301.9999866000089 380.6181869271506 305.99998671098194 411.9381877960693 315.9999869884145 413.7381878460072C325.99998726584704 415.53818789594504 329.99998737682006 386.10818707946106 339.99998765425255 387.4581871169145C349.9999879316851 388.80818715436783 353.9999880426581 417.66818795503815 363.99998832009067 420.21818802578343C373.9999885975232 422.7681880965288 377.9999887084962 399.5481874523304 387.9999889859287 399.6981874564919C397.9999892633613 399.8481874606534 401.9999893743343 424.46318814355357 411.99998965176684 420.9381880457586C421.9999899291994 417.4131879479636 425.9999900401724 382.85318698915677 435.9999903176049 382.778186987076C445.99999059503745 382.7031869849953 449.99999070601046 416.60318792549157 459.999990983443 420.578188035771C469.99999126087556 424.55318814605045 473.9999913718486 402.98318754762846 483.9999916492811 401.85818751641733C493.9999919267137 400.73318748520614 497.99999203768664 416.22818791508786 507.9999923151192 415.17818788595747C517.9999925925517 414.128187856827 526.999992842241 400.64318748270927 531.9999929809572 396.8181873765913 " transform="rotate(36, 400, 400)"></path><path d="M279.0000008392334 404.67333402968745C283.58333429972333 399.654583890451 291.8333345286052 378.93333331557614 301.000001449585 380.5833333613525C310.1666683705648 382.23333340712884 313.8333351389567 410.9433342036377 323.0000020599366 412.59333424941406C332.16666898091637 414.2433342951904 335.83333574930833 387.26583354674676 345.00000267028815 388.50333358107906C354.166669591268 389.74083361541136 357.83333635965994 416.19583434935913 367.00000328063976 418.533334414209C376.1666702016196 420.87083447905883 379.8333369700115 399.5858338885437 389.0000038909913 399.72333389235837C398.16667081197113 399.86083389617306 401.8333375803631 422.4245845221649 411.0000045013429 419.1933344325195C420.16667142232274 415.9620843428741 423.8333381907147 384.28208346396787 433.00000511169446 384.2133334620605C442.1666720326743 384.14458346015317 445.83333880106625 415.2195843222747 455.00000572204607 418.8633344233642C464.1666726430259 422.5070845244537 467.8333394114178 402.73458397590025 477.0000063323977 401.70333394729C486.1666732533775 400.6720839186798 489.83334002176946 414.875834312738 499.0000069427492 413.91333428603514C508.166673863729 412.9508342593323 516.4166740926108 400.58958391639095 521.0000075531008 397.0833338191162 " transform="rotate(33, 400, 400)"></path><path d="M290.00000076293946 404.2484861751154C294.16666754520304 399.6859860485368 301.66666775327747 380.84848552592325 310.00000131780456 382.34848556753815C318.33333488233166 383.848485609153 321.6666683081425 409.94848633325194 330.0000018726696 411.44848637486683C338.33333543719675 412.94848641648167 341.6666688630076 388.4234857360784 350.0000024275347 389.54848576728955C358.3333359920618 390.67348579850074 361.66666941787264 414.72348646572595 370.0000029823998 416.84848652468037C378.3333365469269 418.9734865836348 381.66666997273774 399.62348604680284 390.00000353726483 399.74848605027074C398.3333371017919 399.87348605373865 401.66667052760283 420.38598662282214 410.0000040921299 417.4484865413263C418.333337656657 414.5109864598305 421.6666710824679 385.7109856608248 430.00000464699497 385.64848565909085C438.3333382115221 385.5859856573569 441.6666716373329 413.83598644110384 450.00000520186006 417.14848653300334C458.3333387663872 420.4609866249029 461.666672192198 402.4859861262179 470.00000575672516 401.5484861002086C478.3333393212523 400.61098607419933 481.6666727470631 413.5234864324341 490.0000063115902 412.6484864081587C498.3333398761173 411.7734863838834 505.8333400841917 400.53598607211853 510.00000686645524 397.34848598368694 " transform="rotate(30, 400, 400)"></path><path d="M301.00000068664554 403.8236383205433C304.75000079068275 399.71738820662256 311.5000009779497 382.76363773627037 319.00000118602406 384.1136377737238C326.5000013940985 385.46363781117714 329.5000014773283 408.9536384628662 337.00000168540265 410.3036385003196C344.5000018934771 411.65363853777296 347.5000019767068 389.58113792541 355.00000218478124 390.59363795350004C362.50000239285566 391.6061379815901 365.5000024760854 413.25113858209284 373.00000268415977 415.1636386351518C380.5000028922342 417.0761386882108 383.50000297546393 399.661138205062 391.00000318353835 399.7736382081831C398.5000033916127 399.8861382113042 401.5000034748425 418.34738872347936 409.00000368291694 415.70363865013314C416.5000038909913 413.05988857678693 419.5000039742211 387.1398878576818 427.00000418229547 387.08363785612124C434.5000043903699 387.0273878545607 437.50000447359963 412.4523885599329 445.00000468167406 415.43363864264245C452.5000048897485 418.41488872535206 455.5000049729782 402.23738827653557 463.00000518105264 401.39363825312716C470.50000538912707 400.5498882297188 473.5000054723568 412.1711385521301 481.0000056804312 411.38363853028227C488.5000058885056 410.5961385084345 495.25000607577255 400.4823882278462 499.0000061798097 397.6136381482577 " transform="rotate(27, 400, 400)"></path><path d="M312.00000061035155 403.3987904659712C315.33333403616246 399.7487903647083 321.3333342026219 384.6787899466175 328.0000010542436 385.8787899799094C334.6666679058653 387.07879001320134 337.333334646514 407.95879059248045 344.0000014981357 409.1587906257723C350.6666683497574 410.35879065906425 353.3333350904061 390.7387901147416 360.0000019420278 391.6387901397105C366.6666687936495 392.5387901646795 369.33333553429816 411.77879069845966 376.0000023859198 413.4787907456232C382.6666692375415 415.17879079278674 385.3333359781902 399.69879036332117 392.0000028298119 399.7987903660955C398.6666696814336 399.8987903688698 401.33333642208225 416.3087908241366 408.00000327370395 413.95879075894C414.6666701253256 411.60879069374334 417.3333368659743 388.5687900545388 424.000003717596 388.5187900531516C430.6666705692177 388.4687900517644 433.33333730986635 411.06879067876196 440.00000416148805 413.7187907522816C446.66667101310975 416.3687908258012 449.3333377537584 401.98879042685326 456.0000046053801 401.2387904060458C462.6666714570018 400.48879038523836 465.3333381976505 410.81879067182615 472.0000050492722 410.1187906524059C478.66667190089385 409.41879063298563 484.6666720673534 400.42879038357376 488.0000054931642 397.87879031282847 " transform="rotate(24, 400, 400)"></path><path d="M323.0000005340576 402.97394261139914C325.9166672816421 399.7801925227941 331.1666674272942 386.59394215696466 337.0000009224632 387.64394218609505C342.83333441763216 388.6939422152255 345.1666678156997 406.9639427220947 351.0000013108687 408.01394275122516C356.8333348060377 409.06394278035555 359.16666820410535 391.8964423040732 365.0000016992743 392.68394232592107C370.8333351944433 393.47144234776886 373.16666859251086 410.30644281482654 379.00000208767983 411.79394285609465C384.8333355828488 413.2814428973627 387.1666689809164 399.73644252158033 393.0000024760854 399.82394252400786C398.83333597125437 399.9114425264354 401.16666936932194 414.27019292479383 407.00000286449097 412.21394286774677C412.83333635965994 410.1576928106997 415.1666697577275 389.99769225139573 421.0000032528965 389.95394225018197C426.83333674806545 389.9101922489682 429.1666701461331 409.685192797591 435.00000364130204 412.0039428619207C440.833337136471 414.3226929262504 443.16667053453864 401.7401925771709 449.0000040297076 401.0839425589644C454.8333375248766 400.42769254075785 457.16667092294415 409.4664427915222 463.0000044181131 408.85394277452946C468.8333379132821 408.24144275753673 474.0833380589342 400.37519253930134 477.0000048065187 398.1439424773992 " transform="rotate(21, 400, 400)"></path><path d="M334.0000004577637 402.54909475682706C336.5000005271218 399.81159468087986 341.00000065196645 388.5090943673118 346.00000079068275 389.4090943922807C351.000000929399 390.30909441724964 353.0000009848855 405.969094851709 358.0000011236018 406.8690948766779C363.00000126231805 407.76909490164684 365.00000131780456 393.0540944934049 370.0000014565208 393.72909451213155C375.0000015952371 394.40409453085823 377.00000165072356 408.83409493119336 382.00000178943986 410.10909496656603C387.00000192815617 411.3840950019387 389.0000019836426 399.7740946798395 394.00000212235886 399.84909468192023C399.00000226107517 399.92409468400103 401.0000023165617 412.2315950254511 406.0000024552779 410.4690949765536C411.0000025939942 408.7065949276561 413.00000264948073 391.42659444825273 418.000002788197 391.38909444721236C423.0000029269132 391.35159444617193 425.0000029823998 408.30159491642013 430.00000312111604 410.28909497155985C435.0000032598323 412.2765950266995 437.00000331531885 401.4915947274886 442.0000034540351 400.92909471188295C447.00000359275134 400.3665946962774 449.00000364823785 408.1140949112182 454.00000378695415 407.589094896653C459.0000039256704 407.06409488208783 463.50000405051503 400.3215946950289 466.00000411987315 398.40909464197 " transform="rotate(18, 400, 400)"></path><path d="M344.99999656677244 402.1242430875577C347.08332995790425 399.84299302426837 350.83333006194147 390.4242427629616 354.99999684420504 391.17424278376905C359.16666362646856 391.9242428045765 360.833330339374 404.97424316662597 364.99999712163753 405.7242431874334C369.1666639039011 406.47424320824086 370.8333306168065 394.2117428680392 374.9999973990701 394.7742428836448C379.16666418133366 395.33674289925034 380.83333089423905 407.361743232863 384.99999767650263 408.42424326234016C389.16666445876615 409.4867432918174 390.8333311716716 399.8117430234014 394.9999979539351 399.87424302513534C399.1666647361987 399.9367430268693 400.83333144910415 410.1929933114111 404.9999982313677 408.7242432706632C409.16666501363125 407.25549322991526 410.8333317265367 392.8554928304124 414.9999985088002 392.8242428295454C419.1666652910638 392.79299282867845 420.8333320039692 406.9179932205519 424.99999878623277 408.5742432665017C429.16666556849634 410.2304933124515 430.83333228140174 401.24299306310894 434.9999990636653 400.7742430501043C439.1666658459289 400.30549303709967 440.8333325588343 406.76174321621704 444.9999993410978 406.3242432040794C449.1666661233614 405.88674319194166 452.9166662273986 400.2679930360593 454.99999961853035 398.67424299184347 " transform="rotate(15, 400, 400)"></path><path d="M355.9999964904785 401.6993952329856C357.66666320338396 399.8743951823542 360.6666632866137 392.33939497330874 363.99999671242455 392.93939498995474C367.3333301382354 393.53939500660067 368.66666350855974 403.9793952962402 371.9999969343706 404.57939531288616C375.33333036018144 405.1793953295321 376.6666637305058 395.3693950573708 379.9999971563166 395.81939506985526C383.3333305821275 396.26939508233977 384.6666639524518 405.88939534922986 387.9999973782626 406.7393953728116C391.3333308040735 407.58939539639334 392.66666417439785 399.8493951816606 395.99999760020864 399.8993951830478C399.33333102601955 399.94939518443493 400.6666643963439 408.1543954120683 403.9999978221547 406.97939537946996C407.33333124796553 405.8043953468717 408.6666646182899 394.2843950272694 411.9999980441007 394.2593950265758C415.33333146991157 394.23439502588224 416.6666648402359 405.534395339381 419.99999826604676 406.8593953761408C423.3333316918576 408.1843954129006 424.66666506218195 400.9943952134266 427.9999984879928 400.6193952030229C431.33333191380365 400.24439519261915 432.666665284128 405.4093953359131 435.99999870993884 405.05939532620295C439.33333213574963 404.7093953164928 442.3333322189794 400.2143951917869 443.9999989318849 398.9393951564142 " transform="rotate(12, 400, 400)"></path><path d="M366.9999964141846 401.2745473784135C368.2499964488636 399.90579734043996 370.499996511286 394.25454718365586 372.9999965806441 394.70454719614037C375.49999665000223 395.1545472086248 376.49999667774546 402.9845474258545 378.99999674710364 403.43454743833894C381.49999681646176 403.8845474508234 382.49999684420504 396.5270472467024 384.9999969135631 396.86454725606575C387.4999969829213 397.20204726542914 388.4999970106645 404.4170474655967 390.9999970800227 405.05454748328305C393.4999971493808 405.69204750096935 394.49999717712404 399.8870473399198 396.99999724648217 399.92454734096015C399.49999731584035 399.9620473420005 400.4999973435836 406.1157975127255 402.9999974129417 405.2345474882768C405.4999974822998 404.3532974638281 406.4999975100431 395.71329722412634 408.9999975794012 395.69454722360615C411.49999764875935 395.67579722308597 412.49999767650263 404.15079745821004 414.99999774586075 405.1445474857799C417.4999978152189 406.13829751334976 418.49999784296216 400.74579736374426 420.9999979123203 400.4645473559415C423.4999979816784 400.1832973481387 424.4999980094217 404.0570474556091 426.9999980787798 403.7945474483265C429.49999814813793 403.5320474410439 431.74999821056025 400.16079734751446 432.99999824523934 399.204547320985 " transform="rotate(9, 400, 400)"></path><path d="M378.0000001525879 400.8496976164928C378.8333335090406 399.9371975911771 380.3333335506555 396.1696974866544 382.0000002635609 396.46969749497737C383.66666697646633 396.76969750330034 384.3333336616285 401.9896976481201 386.0000003745339 402.2896976564431C387.66666708743935 402.58969766476605 388.3333337726015 397.68469752868543 390.0000004855069 397.90969753492766C391.66666719841237 398.1346975411699 392.33333388357454 402.94469767461493 394.00000059647994 403.3696976864058C395.6666673093854 403.79469769819667 396.33333399454756 399.9246975908303 398.00000070745295 399.9496975915239C399.6666674203584 399.97469759221747 400.3333341055206 404.07719770603416 402.000000818426 403.489697689735C403.6666675313314 402.9021976734358 404.33333421649354 397.1421975136347 406.000000929399 397.1296975132879C407.66666764230445 397.1171975129411 408.33333432746656 402.7671976696905 410.000001040372 403.4296976880704C411.66666775327747 404.0921977064503 412.3333344384396 400.4971976067133 414.00000115134503 400.30969760151146C415.6666678642505 400.1221975963096 416.3333345494126 402.70469766795657 418.00000126231805 402.5296976631015C419.66666797522345 402.3546976582464 421.16666801683834 400.10719759589347 422.00000137329107 399.4696975782071 " transform="rotate(6, 400, 400)"></path><path d="M389.00000007629393 400.4248497619207C389.4166667545203 399.96859974926286 390.1666667753277 398.0848496970015 391.00000013178044 398.234849701163C391.83333348823317 398.3848497053245 392.1666668308143 400.9948497777344 393.00000018726695 401.14484978189586C393.8333335437197 401.29484978605734 394.16666688630073 398.84234971801703 395.00000024275346 398.95484972113815C395.8333335992062 399.06734972425926 396.1666669417873 401.47234979098175 397.00000029823997 401.6848497968772C397.8333336546927 401.8973498027727 398.16666699727375 399.96234974908947 399.0000003537265 399.97484974943626C399.8333337101792 399.98734974978305 400.16666705276026 402.0385998066914 401.000000409213 401.7448497985418C401.8333337656657 401.4510997903922 402.16666710824677 398.57109971049164 403.0000004646995 398.56484971031824C403.8333338211522 398.55859971014485 404.1666671637333 401.3835997885196 405.000000520186 401.7148497977095C405.83333387663873 402.04609980689946 406.1666672192198 400.24859975703095 407.0000005756725 400.15484975443C407.83333393212524 400.0610997518291 408.1666672747063 401.3523497876526 409.000000631159 401.26484978522507C409.8333339876117 401.17734978279753 410.5833340084192 400.05359975162105 411.00000068664554 399.7348497427779 " transform="rotate(3, 400, 400)"></path></g></svg>